<?xml version="1.0" standalone="no"?>
<!DOCTYPE svg PUBLIC "-//W3C//DTD SVG 20010904//EN"
 "http://www.w3.org/TR/2001/REC-SVG-20010904/DTD/svg10.dtd">
<svg version="1.0" xmlns="http://www.w3.org/2000/svg"
 width="1080.000000pt" height="1080.000000pt" viewBox="0 0 1080.000000 1080.000000"
 preserveAspectRatio="xMidYMid meet">
<metadata>
Created by potrace 1.11, written by Peter Selinger 2001-2013
</metadata>
<g transform="translate(0.000000,1080.000000) scale(0.100000,-0.100000)"
fill="#000000" stroke="none">
<path d="M5585 10543 c-93 -3 -320 -21 -356 -28 -13 -3 -69 -12 -125 -20 -55
-8 -138 -24 -183 -35 -45 -12 -86 -18 -91 -15 -6 4 -10 1 -10 -4 0 -6 -10 -11
-21 -11 -28 0 -334 -93 -419 -127 -160 -64 -375 -170 -449 -220 -20 -13 -49
-27 -64 -30 -15 -3 -26 -8 -23 -10 2 -2 -6 -14 -19 -26 -12 -12 -43 -42 -68
-66 l-46 -44 -40 17 c-79 31 -356 16 -609 -33 -127 -25 -325 -97 -437 -160
-50 -28 -94 -51 -98 -51 -17 0 -213 -134 -317 -216 -253 -199 -488 -463 -744
-837 -91 -133 -326 -595 -340 -667 -1 -8 -10 -33 -20 -55 -38 -87 -146 -427
-171 -540 -51 -233 -59 -342 -60 -920 0 -510 -1 -535 -24 -660 -43 -241 -145
-531 -283 -810 -93 -186 -241 -532 -289 -675 -58 -175 -83 -331 -83 -530 0
-302 57 -487 251 -810 79 -132 126 -202 173 -260 34 -43 147 -197 194 -265 38
-55 86 -147 86 -164 0 -6 4 -19 10 -29 42 -74 61 -276 37 -382 -34 -147 -91
-304 -215 -590 -27 -63 -60 -150 -72 -192 -13 -43 -26 -78 -30 -78 -3 0 -7
-15 -8 -32 0 -18 -4 -89 -8 -158 -6 -129 6 -229 43 -340 21 -64 87 -197 123
-250 16 -25 30 -48 30 -52 0 -5 16 -30 35 -57 19 -26 38 -62 41 -80 6 -29 9
-31 51 -31 37 0 44 3 39 16 -3 9 -6 22 -6 30 0 19 -16 18 -24 -2 -3 -8 -2 -12
4 -9 11 7 14 -8 3 -18 -8 -9 -55 61 -48 72 11 19 -44 109 -64 104 -4 -1 -16
15 -27 35 -10 20 -37 69 -59 107 -23 39 -47 84 -53 100 -49 120 -76 362 -53
466 40 177 69 271 112 367 11 24 27 64 35 90 9 25 26 69 39 97 29 66 67 169
117 319 39 120 48 251 23 362 -19 85 -70 209 -115 281 -16 25 -27 51 -23 57 3
6 3 8 -2 4 -8 -8 -145 163 -145 180 0 6 -13 23 -28 39 -33 34 -209 284 -225
322 -7 14 -25 47 -40 73 -16 26 -25 53 -21 59 4 7 3 9 -3 6 -11 -7 -67 120
-103 233 -63 195 -76 503 -30 712 39 178 143 443 315 798 145 301 183 396 274
691 11 36 30 117 43 180 21 109 22 137 24 669 1 506 4 569 23 714 35 260 76
411 193 716 56 145 191 439 207 450 4 3 18 31 30 62 13 32 29 62 37 69 8 6 14
17 14 23 0 6 19 37 43 68 23 32 54 80 70 108 15 28 32 48 37 45 6 -3 7 1 4 9
-6 17 2 19 46 17 19 -2 22 0 10 8 -8 5 -18 7 -22 5 -4 -3 -8 5 -8 16 0 15 5
20 14 17 9 -4 13 -1 10 6 -4 11 43 75 205 282 50 64 132 149 251 260 113 105
169 147 186 141 7 -3 11 0 8 7 -2 7 8 20 23 29 16 9 37 24 48 33 33 27 187
125 225 144 19 10 64 33 100 52 192 102 433 171 660 190 157 13 354 9 371 -8
8 -8 6 -20 -5 -42 l-17 -31 -87 0 c-148 0 -398 -38 -437 -66 -24 -18 -11 -32
15 -16 28 17 241 52 360 59 101 5 181 -5 289 -36 67 -20 130 -76 107 -96 -16
-13 -39 -87 -35 -110 4 -18 5 -18 23 1 11 10 30 17 42 16 13 -2 34 4 46 12 12
9 30 16 39 16 9 0 19 7 23 15 3 8 12 15 20 15 7 0 16 9 19 20 3 12 14 20 25
20 12 0 24 5 27 11 10 15 54 30 105 35 85 7 135 17 162 30 15 8 40 14 56 14
16 0 32 3 36 7 3 4 12 8 19 9 7 1 21 5 32 9 17 6 17 4 -4 -14 -13 -12 -29 -21
-37 -21 -13 0 -225 -69 -233 -77 -2 -1 -2 -6 2 -9 3 -3 34 5 69 19 35 14 81
28 103 31 59 10 69 12 85 19 32 13 134 36 142 31 4 -3 8 0 8 5 0 6 10 11 22
11 15 0 19 -3 11 -11 -8 -8 -33 -14 -75 -18 -5 -1 -8 -8 -8 -16 0 -9 -11 -20
-24 -25 -13 -5 -27 -13 -30 -18 -3 -6 -15 -8 -27 -5 -14 4 -29 -3 -48 -25 -27
-29 -27 -31 -8 -36 13 -3 18 -10 14 -20 -5 -13 2 -16 42 -16 34 0 51 5 55 15
3 8 21 23 41 32 19 9 35 20 35 25 0 4 6 8 13 8 18 0 67 24 67 33 0 4 8 7 18 7
20 1 62 33 62 49 0 6 11 11 24 11 26 0 50 22 38 35 -4 4 27 5 68 2 41 -3 66
-2 55 2 -27 11 82 19 335 27 283 8 507 -14 770 -78 47 -11 100 -22 118 -25 17
-3 32 -9 32 -15 0 -5 4 -6 10 -3 5 3 20 -1 33 -10 13 -8 33 -13 43 -9 15 5 16
4 4 -5 -17 -12 -13 -18 15 -23 11 -1 27 -11 36 -20 17 -19 94 -26 101 -9 2 4
12 5 23 0 17 -6 17 -8 3 -8 -19 -1 -26 -41 -8 -41 6 0 10 -8 10 -18 0 -11 9
-23 19 -28 30 -14 109 -91 116 -113 3 -11 19 -26 35 -33 34 -15 37 -23 13 -37
-15 -9 -14 -10 9 -11 21 0 29 -6 34 -25 4 -18 15 -28 35 -32 21 -4 31 -13 36
-32 3 -14 14 -38 24 -53 25 -35 24 -45 -8 -73 -27 -23 -28 -23 -9 -44 17 -18
20 -19 30 -5 15 20 46 8 46 -17 0 -10 7 -19 15 -19 8 0 15 -4 15 -8 0 -19 -37
-41 -74 -44 -50 -4 -62 -28 -14 -28 32 0 58 -14 58 -32 0 -4 -10 -8 -23 -8
-13 0 -28 -5 -35 -12 -7 -7 -12 -8 -12 -2 0 5 -4 4 -8 -2 -4 -6 -19 -14 -33
-17 -22 -6 -31 -1 -51 26 -14 17 -28 41 -32 52 -7 19 -8 19 -29 -6 -12 -14
-28 -24 -34 -23 -7 1 -18 2 -24 3 -5 0 -17 17 -25 37 -10 24 -20 34 -30 30
-10 -4 -14 2 -14 24 0 20 -5 30 -15 30 -9 0 -21 11 -27 25 -7 16 -19 25 -35
25 -14 0 -23 6 -23 16 0 9 -7 14 -17 12 -12 -2 -19 -14 -21 -37 -3 -24 0 -32
10 -29 7 3 18 -2 25 -11 18 -23 16 -61 -2 -61 -13 0 -20 17 -17 41 1 4 -8 5
-18 2 -18 -5 -20 0 -20 36 0 32 -4 41 -17 42 -63 2 -88 23 -50 40 66 30 2 96
-67 71 -18 -7 -44 -12 -57 -12 -14 0 -30 -5 -37 -12 -10 -10 -19 -8 -45 7 -26
15 -21 7 27 -42 35 -36 64 -59 72 -56 8 3 20 0 28 -6 7 -6 16 -8 19 -4 4 3 7
1 7 -5 0 -6 15 -16 33 -21 17 -5 24 -10 13 -10 -10 -1 -27 -12 -38 -26 -23
-30 -48 -32 -55 -6 -6 23 -53 38 -63 20 -12 -18 0 -48 22 -55 28 -9 16 -29
-20 -32 -31 -3 -32 -5 -32 -52 0 -44 -3 -50 -22 -54 -37 -6 -82 -5 -71 2 6 4
11 24 11 46 0 21 6 42 13 47 11 6 10 9 -4 15 -36 14 -8 64 36 64 24 0 37 16
37 46 0 8 -7 14 -15 14 -8 0 -15 -9 -15 -19 0 -21 -22 -33 -46 -24 -8 3 -32 7
-52 8 -51 3 -49 3 -55 25 -9 34 -31 22 -46 -22 -32 -101 -31 -122 4 -123 6 0
12 -31 15 -69 4 -57 2 -70 -10 -73 -23 -6 -40 -37 -29 -54 7 -12 9 -12 9 1 1
8 8 2 17 -15 8 -16 24 -40 35 -51 10 -12 18 -25 17 -30 -4 -23 2 -36 16 -30 8
3 27 -5 41 -18 23 -19 25 -25 15 -43 -6 -12 -11 -32 -11 -44 0 -17 -4 -20 -22
-15 -13 4 -40 10 -60 13 -21 3 -38 10 -38 15 0 5 -5 6 -10 3 -6 -3 -13 1 -16
10 -4 10 -13 13 -25 10 -17 -6 -19 -1 -19 40 0 44 -1 45 -27 39 -16 -4 -31 -9
-35 -11 -15 -8 -8 -56 11 -72 10 -9 22 -31 25 -49 7 -28 5 -32 -13 -32 -12 0
-21 6 -21 15 0 8 -7 15 -16 15 -8 0 -12 5 -9 10 4 6 -8 11 -27 12 -59 2 -61 3
-66 16 -2 6 -8 10 -13 6 -13 -8 -11 -42 4 -51 35 -21 45 -123 12 -123 -18 0
-37 26 -33 45 2 11 -9 21 -37 30 -22 8 -42 20 -44 27 -5 15 -123 146 -134 147
-4 1 -76 71 -160 157 -83 86 -165 163 -182 171 -16 9 -35 22 -43 29 -7 8 -24
14 -36 14 -13 0 -38 3 -55 6 -31 7 -32 6 -29 -30 1 -21 6 -40 11 -43 4 -2 -2
-13 -14 -24 -12 -10 -17 -19 -11 -19 7 0 12 -7 12 -16 0 -8 5 -12 10 -9 18 11
23 -24 6 -40 -9 -9 -16 -20 -16 -25 0 -4 -13 -13 -30 -19 -16 -5 -30 -15 -30
-21 0 -6 -9 -20 -20 -32 -14 -16 -20 -36 -20 -71 l0 -49 -67 37 c-37 20 -121
55 -187 78 -104 35 -136 41 -228 45 -59 2 -137 -1 -174 -8 -73 -12 -141 -37
-131 -46 3 -4 14 -3 24 1 10 5 22 7 27 6 4 -1 14 3 22 9 20 18 232 25 306 11
154 -30 441 -164 461 -215 4 -10 13 -13 23 -9 11 4 15 3 10 -5 -3 -6 3 -13 14
-17 11 -3 19 -11 17 -18 -1 -6 5 -11 13 -12 9 0 14 -8 12 -18 -2 -11 4 -17 17
-17 16 0 121 -96 129 -119 2 -5 -7 -11 -18 -14 -30 -8 -156 75 -144 94 3 5 -1
9 -8 9 -7 0 -26 19 -42 42 -21 29 -47 49 -92 69 -35 16 -73 29 -84 29 -11 0
-47 14 -80 30 -33 17 -68 30 -78 30 -10 0 -27 7 -38 15 -10 8 -32 14 -49 15
l-30 0 28 -19 c16 -10 28 -22 27 -27 -1 -4 35 -29 80 -55 92 -53 138 -92 147
-127 3 -12 8 -21 11 -18 6 7 42 -33 42 -46 0 -6 -21 5 -47 24 -52 37 -177 111
-206 121 -36 13 -6 -11 46 -38 113 -56 348 -251 339 -279 -2 -5 7 -19 19 -32
12 -13 19 -24 14 -24 -5 0 2 -11 14 -24 13 -14 24 -36 25 -49 0 -14 4 -23 9
-20 4 2 7 -5 7 -17 0 -12 4 -19 9 -16 9 6 131 -126 131 -142 0 -5 13 -8 29 -7
22 1 28 -2 23 -13 -3 -10 -1 -13 6 -8 7 4 12 2 12 -3 0 -6 -5 -11 -12 -11 -6
0 0 -13 15 -28 15 -15 27 -38 27 -50 0 -15 5 -20 15 -16 8 4 15 1 15 -4 0 -6
6 -17 13 -24 15 -15 77 -140 77 -156 0 -6 4 -12 8 -14 4 -1 23 -52 42 -113 32
-99 35 -125 41 -265 3 -102 6 -126 7 -70 2 104 17 97 33 -15 6 -44 13 -82 16
-85 7 -7 -5 105 -23 210 -18 108 -18 144 -1 134 9 -6 9 -5 0 7 -6 8 -14 51
-17 95 -2 44 -5 84 -6 89 -7 32 3 23 24 -21 13 -28 34 -59 48 -70 13 -10 30
-34 37 -51 7 -18 16 -33 20 -33 13 0 9 -39 -5 -51 -8 -6 -14 -16 -14 -21 0
-14 36 -58 43 -52 10 10 55 -38 51 -54 -3 -10 15 -41 41 -72 25 -30 45 -60 45
-67 0 -6 4 -13 8 -15 5 -1 41 -50 80 -108 39 -58 79 -114 90 -125 10 -11 44
-51 76 -90 82 -98 383 -393 459 -450 20 -15 54 -43 75 -62 20 -19 53 -43 72
-53 19 -10 57 -34 85 -54 27 -20 58 -36 67 -36 10 0 18 -4 18 -10 0 -5 5 -10
11 -10 36 0 128 -48 150 -77 27 -36 284 -236 336 -261 18 -9 33 -18 33 -22 0
-3 -15 -14 -34 -24 -19 -10 -47 -32 -63 -49 -31 -34 -16 -28 38 15 23 19 65
36 115 48 96 24 119 24 225 4 64 -11 97 -24 136 -51 71 -47 153 -172 139 -210
-3 -7 3 -21 13 -30 38 -37 74 -216 60 -303 -22 -141 -87 -245 -210 -339 -117
-89 -208 -185 -270 -286 -71 -116 -147 -186 -244 -222 -41 -15 -75 -31 -75
-35 0 -13 37 -9 80 8 49 20 62 13 25 -13 -15 -10 -44 -33 -65 -51 -20 -17 -41
-32 -46 -32 -24 -1 -44 -80 -49 -195 -4 -66 -8 -138 -10 -160 -6 -49 -17 -333
-17 -395 1 -97 -18 3 -27 143 l-10 142 5 -185 c6 -227 33 -405 61 -405 6 0 15
-4 19 -8 5 -4 15 1 24 12 10 14 22 19 38 15 30 -8 28 -20 -5 -29 -104 -26
-316 -164 -432 -282 -29 -30 -55 -52 -58 -49 -3 3 -11 38 -19 78 -14 76 -32
128 -43 128 -18 0 -172 -331 -195 -421 -15 -60 -21 -56 -31 21 -15 118 -60
181 -162 227 -45 21 -66 25 -118 21 -91 -6 -125 -36 -191 -167 -28 -57 -54
-99 -57 -94 -3 5 -9 33 -13 61 -10 75 -51 135 -112 163 l-50 23 62 41 c33 23
92 65 129 94 38 28 83 57 100 65 18 7 53 31 79 53 26 23 75 62 110 89 262 199
479 397 608 555 19 24 68 81 109 128 73 84 168 252 155 273 -4 6 -25 -29 -48
-76 -47 -100 -155 -232 -361 -444 -174 -179 -417 -379 -668 -550 -51 -34 -101
-70 -111 -79 -11 -8 -61 -44 -113 -79 -88 -61 -96 -64 -150 -63 -32 0 -81 4
-110 8 -87 12 -208 -28 -280 -93 -34 -30 -44 -35 -75 -30 -34 6 -36 5 -60 -45
-21 -42 -28 -48 -38 -36 -36 44 -141 38 -213 -12 -42 -29 -57 -52 -67 -98 -5
-24 -12 -31 -40 -37 -19 -4 -99 -21 -177 -37 -78 -17 -191 -36 -251 -43 -99
-11 -114 -10 -158 6 -57 21 -170 71 -302 132 -52 24 -98 44 -103 44 -14 0
-301 165 -384 220 -261 174 -363 262 -443 380 -105 155 -157 281 -206 499 -30
136 -59 392 -58 513 1 87 -2 119 -12 125 -8 5 -17 56 -25 153 -24 298 -32 376
-41 429 -11 60 -8 68 27 82 14 5 23 12 20 16 -4 3 -18 -2 -31 -11 -30 -19 -33
-20 -33 -3 0 6 -11 50 -23 97 -12 47 -26 107 -31 134 -4 26 -13 63 -19 82 -10
29 -8 39 16 79 14 26 50 63 78 84 l51 38 21 -83 c25 -99 86 -206 147 -261 121
-106 295 -147 450 -107 82 21 114 39 164 90 57 60 97 134 124 229 13 44 24 82
26 84 1 2 21 -11 45 -29 l43 -32 -49 47 c-63 59 -117 86 -281 140 -301 99
-553 85 -737 -41 -42 -28 -83 -48 -108 -51 -39 -5 -40 -4 -56 33 -40 95 -134
465 -134 526 0 17 -3 28 -7 24 -13 -13 -1 -104 28 -217 69 -267 89 -345 89
-358 0 -14 -58 -12 -145 4 l-30 6 29 -17 c16 -9 56 -19 90 -22 60 -5 86 -19
63 -34 -17 -11 -125 -10 -145 1 -10 5 -31 7 -47 3 -51 -9 0 -20 105 -22 88 -2
93 -3 65 -15 -45 -19 -91 -24 -146 -16 -53 9 -64 1 -24 -17 37 -17 113 -15
169 4 51 18 77 12 30 -7 -112 -43 -320 -70 -331 -42 -3 7 -11 13 -19 13 -8 0
-11 -6 -8 -15 5 -12 0 -14 -24 -9 -21 4 -36 1 -46 -9 -8 -8 -37 -18 -63 -22
-26 -4 -62 -13 -79 -20 -24 -10 -35 -10 -44 -2 -10 9 -12 8 -7 -5 4 -10 0 -23
-8 -30 -28 -24 -125 -145 -125 -156 0 -6 -15 -22 -33 -36 -18 -14 -39 -37 -47
-50 -7 -14 -26 -30 -43 -37 -33 -14 -57 -60 -57 -110 0 -22 15 -52 51 -101 39
-52 53 -79 55 -110 1 -22 4 -41 6 -42 2 -1 20 -14 40 -29 20 -15 40 -27 44
-27 4 0 19 -11 34 -25 14 -13 40 -25 58 -27 23 -2 32 -7 32 -20 0 -22 45 -115
68 -141 14 -16 13 -20 -13 -47 -35 -36 -37 -81 -10 -195 21 -90 54 -150 90
-167 14 -6 25 -15 25 -19 0 -5 7 -6 15 -3 9 4 27 -7 44 -26 16 -17 42 -45 58
-62 57 -61 123 -79 183 -48 22 11 45 18 50 15 16 -10 100 6 116 22 8 8 21 13
29 10 9 -4 12 0 10 13 -2 11 4 25 14 32 10 7 31 39 48 70 17 32 34 54 38 50 5
-4 5 -1 0 7 -4 7 -3 16 3 20 6 3 22 31 36 61 16 34 26 47 27 35 1 -11 2 -24 3
-30 7 -44 17 -119 21 -163 6 -71 13 -111 38 -207 11 -44 20 -92 21 -107 0 -16
4 -28 9 -28 4 0 7 -8 7 -17 0 -10 12 -49 26 -88 14 -38 28 -80 31 -92 3 -12
11 -28 19 -34 8 -6 14 -19 14 -29 0 -10 7 -20 14 -23 8 -3 23 -21 32 -39 9
-18 20 -35 24 -38 3 -3 20 -25 37 -50 51 -74 200 -201 353 -303 41 -27 74 -53
72 -59 -1 -5 2 -7 7 -4 5 3 19 -3 32 -13 13 -10 52 -32 86 -49 34 -18 64 -36
68 -42 3 -5 13 -10 22 -10 9 0 44 -18 79 -40 35 -22 68 -40 73 -40 4 0 14 -7
21 -15 7 -9 15 -14 17 -11 2 2 49 -18 104 -45 55 -27 102 -49 105 -49 17 0
181 -77 192 -90 8 -8 11 -9 7 -2 -7 13 11 17 19 4 6 -11 286 29 399 57 109 26
193 35 202 22 3 -6 -1 -39 -10 -73 -45 -176 -56 -366 -30 -517 36 -209 140
-484 207 -548 32 -31 125 -83 147 -83 13 0 14 -242 2 -360 -20 -183 -91 -440
-179 -640 l-11 -25 0 25 c-4 104 -34 435 -51 548 -33 230 -184 788 -241 894
-11 21 -18 42 -15 47 3 5 -1 14 -9 21 -8 7 -15 19 -15 27 0 21 -108 235 -123
241 -4 2 -5 8 -1 13 3 5 1 9 -3 9 -5 0 -17 15 -27 33 -24 41 -154 214 -166
222 -16 10 -11 28 4 22 10 -4 13 -1 9 9 -4 10 -14 14 -29 11 -13 -2 -21 0 -18
4 3 5 -2 9 -10 9 -8 0 -18 -5 -21 -11 -4 -5 -12 -8 -18 -6 -13 4 -84 -29 -92
-44 -3 -4 4 -27 15 -50 19 -37 24 -74 20 -156 0 -13 0 -30 0 -38 0 -8 -1 -27
-2 -43 -1 -15 2 -40 6 -56 6 -24 5 -28 -10 -22 -17 6 -17 6 -1 -12 19 -21 23
-37 6 -26 -8 5 -10 -1 -5 -19 6 -27 -9 -46 -24 -31 -5 5 -11 32 -14 59 -10 99
-19 125 -75 218 -13 20 -20 37 -17 37 3 0 -2 9 -12 19 -9 11 -22 26 -27 33 -6
7 -21 26 -33 42 -16 21 -19 32 -11 37 8 4 5 13 -10 28 -11 11 -21 29 -21 39 0
22 -36 82 -50 82 -6 0 -16 11 -22 25 -6 14 -19 25 -29 25 -9 0 -20 7 -23 16
-4 9 -9 14 -12 11 -5 -5 -39 21 -80 61 -12 11 -14 10 -14 -6 0 -11 6 -22 13
-25 6 -2 9 -8 5 -12 -4 -4 -19 2 -34 14 -29 23 -45 21 -24 -4 10 -12 10 -15
-4 -15 -9 0 -15 3 -15 8 4 23 -5 28 -50 28 -44 -1 -48 -3 -39 -19 8 -16 7 -18
-10 -13 -14 5 -25 0 -36 -15 -13 -20 -16 -20 -22 -6 -9 25 -27 21 -66 -17 -27
-27 -35 -30 -31 -15 6 22 -22 59 -44 59 -7 0 -35 23 -61 51 -50 55 -93 79
-141 79 -16 0 -33 5 -36 10 -3 6 1 10 9 10 9 0 16 8 16 18 0 16 -20 31 -61 47
-8 4 -24 26 -33 50 -33 79 -41 90 -64 88 -21 -3 -27 9 -25 55 1 9 -5 8 -19 -4
-15 -14 -18 -26 -13 -56 6 -31 4 -38 -9 -38 -14 0 -21 18 -17 42 0 4 -5 5 -13
2 -8 -3 -17 -1 -21 5 -13 22 -24 10 -18 -23 4 -29 2 -34 -18 -39 -17 -5 -29 0
-44 17 -11 13 -27 26 -36 29 -11 4 -15 13 -12 30 4 19 -1 26 -26 37 -19 7 -34
22 -37 36 -3 13 -12 24 -20 24 -8 0 -14 7 -14 15 0 8 -18 26 -40 40 -23 15
-40 33 -40 44 0 13 -10 20 -30 25 -38 7 -38 21 3 58 27 26 28 30 10 24 -15 -5
-23 -3 -23 4 0 6 -5 8 -10 5 -6 -3 -10 3 -10 15 0 12 -6 27 -13 34 -20 21 -78
48 -85 41 -4 -4 -6 -65 -6 -136 1 -71 -1 -129 -5 -129 -6 0 -165 147 -186 171
-5 6 -48 50 -95 98 -85 86 -170 187 -170 203 0 4 -6 8 -13 8 -12 0 -23 20 -61
112 -9 20 -20 39 -25 42 -5 3 -17 28 -27 56 -10 27 -29 61 -42 75 -23 26 -25
35 -33 228 -5 111 -11 209 -13 217 -3 13 -7 -192 -6 -325 0 -22 -4 -47 -10
-55 -7 -11 -10 -4 -10 28 0 40 -1 42 -30 42 -23 0 -30 4 -30 20 0 11 -5 20
-11 20 -6 0 -10 -15 -9 -32 3 -56 1 -68 -16 -68 -15 0 -44 23 -44 34 0 3 9 6
20 6 13 0 20 7 20 20 0 13 -7 20 -20 20 -10 0 -24 8 -30 18 -7 12 -9 -10 -5
-81 7 -113 32 -187 64 -187 11 0 28 -11 37 -25 18 -27 12 -47 -8 -27 -7 7 -18
12 -26 12 -18 0 -10 -34 34 -146 19 -48 34 -95 34 -105 0 -10 7 -24 15 -33 8
-8 15 -19 15 -24 0 -5 14 -26 30 -47 17 -21 30 -42 30 -47 0 -17 71 -114 148
-201 42 -49 157 -168 255 -266 97 -97 177 -182 177 -188 0 -6 16 -32 36 -58
26 -35 34 -55 32 -78 -2 -22 -8 -32 -19 -31 -21 2 -43 -66 -23 -72 8 -2 21 -6
30 -9 9 -3 14 -14 12 -27 -2 -18 -8 -22 -28 -20 -14 2 -31 9 -37 14 -9 7 -13
7 -13 -1 0 -6 -5 -11 -10 -11 -13 0 -9 32 5 42 6 5 5 8 -2 8 -7 0 -13 7 -13
15 0 18 -18 19 -70 3 -46 -15 -52 -35 -13 -44 16 -4 34 -12 42 -18 11 -8 13
-8 7 1 -11 19 1 16 29 -9 17 -15 23 -28 19 -41 -5 -17 -2 -18 48 -12 48 6 55
4 76 -18 32 -34 23 -67 -20 -67 -20 0 -28 -4 -24 -12 3 -7 9 -21 12 -30 4 -10
15 -18 25 -18 19 0 59 -28 59 -41 0 -4 -9 -5 -20 -2 -15 4 -20 0 -20 -16 0
-17 6 -21 35 -21 25 0 35 4 35 16 0 8 -5 12 -11 8 -7 -4 -6 3 2 17 16 30 23
11 14 -38 -5 -31 -9 -35 -31 -30 -14 2 -23 2 -20 -1 3 -2 -2 -11 -10 -19 -13
-13 -17 -13 -39 1 -25 17 -65 22 -65 8 0 -4 14 -12 32 -17 38 -12 47 -31 18
-40 -11 -3 -18 -10 -16 -14 3 -4 -3 -7 -13 -8 -9 -1 -21 8 -26 20 -17 38 -72
58 -140 52 -63 -5 -85 -21 -85 -59 0 -17 -2 -18 -10 -6 -7 12 -10 11 -15 -5
-4 -11 -10 -30 -15 -42 -9 -21 -4 -33 12 -33 4 0 8 10 9 23 l0 22 11 -22 c8
-17 7 -28 -3 -45 -17 -27 -13 -68 6 -68 8 0 11 -7 8 -20 -3 -11 -1 -26 5 -33
6 -6 13 -30 17 -52 8 -47 31 -126 50 -175 8 -19 19 -55 26 -80 11 -45 29 -94
74 -200 13 -30 44 -109 70 -175 56 -142 175 -392 216 -453 16 -24 29 -48 29
-55 0 -7 14 -28 31 -47 16 -19 38 -53 49 -75 10 -22 30 -51 44 -64 14 -13 23
-28 20 -33 -3 -4 2 -15 10 -24 9 -9 16 -32 16 -55 0 -21 5 -39 10 -39 6 0 10
9 10 21 0 18 2 19 15 5 8 -8 15 -19 15 -25 0 -6 4 -11 8 -11 5 0 15 -11 22
-25 9 -18 22 -25 42 -25 30 0 37 14 15 27 -17 10 -97 119 -97 132 0 5 -3 11
-7 13 -9 3 -93 129 -173 257 -67 108 -153 274 -196 379 -19 45 -50 121 -70
170 -64 156 -174 499 -198 618 -3 10 -9 39 -15 64 -6 25 -11 58 -11 74 0 27 1
28 37 21 21 -4 43 -10 48 -15 6 -4 27 -10 48 -13 20 -3 79 -26 131 -50 84 -40
115 -62 258 -186 4 -3 11 -35 16 -71 27 -183 76 -286 216 -454 127 -150 192
-199 307 -226 65 -15 71 -19 129 -85 33 -39 73 -88 88 -110 15 -22 54 -77 87
-121 117 -159 150 -210 203 -316 54 -108 54 -108 91 -108 20 0 42 5 49 12 9 9
12 9 12 0 0 -7 7 -12 15 -12 9 0 15 9 15 23 0 39 -79 327 -139 507 -33 96 -61
186 -62 199 -3 20 4 28 40 48 24 12 50 23 56 23 7 0 18 -21 24 -47 7 -27 20
-71 31 -98 10 -28 30 -109 43 -180 14 -72 33 -157 41 -190 8 -33 27 -111 42
-173 l27 -112 88 0 c49 0 89 2 89 5 0 3 -8 13 -19 24 -13 13 -21 46 -30 117
-7 54 -14 113 -17 129 -2 17 -6 120 -8 230 -5 307 11 568 58 940 8 61 17 137
21 170 3 33 12 92 20 130 7 39 19 108 25 155 6 46 15 89 18 95 8 12 9 17 11
109 1 57 3 67 15 57 33 -27 186 -271 249 -396 28 -57 77 -200 77 -227 0 -10 3
-18 8 -18 24 0 133 -340 192 -595 49 -216 66 -332 85 -575 29 -375 26 -350 46
-350 12 0 19 7 19 19 0 10 11 43 24 72 13 30 31 74 39 99 9 25 36 103 61 173
61 171 85 307 96 539 6 105 12 193 14 195 2 2 46 -18 97 -46 112 -59 162 -72
177 -44 25 44 40 -24 61 -272 10 -116 4 -471 -9 -595 -13 -115 -13 -140 3
-140 34 0 48 538 22 805 -8 83 -15 157 -15 166 0 14 10 17 59 15 l58 -1 9
-150 c5 -82 9 -304 9 -493 0 -314 1 -342 17 -342 9 0 20 10 23 21 9 28 -3 667
-15 819 -15 181 -23 161 77 208 48 23 88 40 90 38 3 -3 -24 -193 -33 -231 -19
-80 -46 -409 -51 -612 -5 -212 -4 -243 9 -243 13 0 16 33 22 208 7 189 25 379
73 755 l17 138 60 32 c33 18 85 56 114 86 53 54 150 194 209 301 17 30 47 84
67 118 20 35 36 66 36 68 0 3 17 31 37 62 77 120 119 246 130 390 5 63 2 81
-21 142 -27 69 -28 70 -11 127 18 62 73 198 133 326 28 60 38 74 44 60 4 -10
19 -103 35 -208 24 -171 27 -216 27 -455 -1 -374 -55 -950 -90 -950 -7 0 -29
-14 -47 -30 -19 -17 -37 -30 -41 -30 -3 0 -6 20 -6 45 0 32 -5 47 -15 52 -32
12 -175 -60 -175 -87 0 -5 -18 -33 -39 -62 -23 -30 -52 -88 -70 -137 -76 -221
-104 -317 -127 -442 -42 -226 -46 -269 -34 -366 16 -138 18 -143 47 -143 23 0
25 3 19 32 -4 18 -9 96 -12 173 -8 190 15 307 142 720 33 107 101 217 148 239
82 39 84 39 91 -4 5 -32 2 -45 -14 -67 -139 -180 -143 -190 -175 -333 -42
-192 -51 -289 -37 -437 6 -71 13 -141 15 -158 3 -16 8 -60 11 -97 6 -57 10
-68 25 -68 16 0 18 8 14 82 -3 46 -10 123 -16 173 -16 117 -16 279 0 380 7 44
17 112 23 150 6 39 19 89 30 113 30 70 128 200 181 243 51 40 63 45 72 30 3
-5 25 -5 50 1 44 9 47 8 80 -25 21 -21 49 -37 73 -42 21 -4 63 -22 93 -41 31
-19 60 -34 65 -34 6 0 21 -9 34 -19 23 -17 23 -20 10 -69 -11 -43 -10 -63 1
-119 17 -83 16 -101 -10 -228 -52 -246 -106 -397 -186 -515 -51 -77 -52 -80
-29 -80 19 0 36 15 69 60 73 98 105 191 203 585 10 39 13 83 9 126 -6 62 -4
67 22 92 16 15 43 31 60 37 28 7 34 6 44 -13 17 -30 15 -138 -5 -355 -24 -248
-28 -259 -175 -449 -58 -76 -61 -83 -40 -83 39 0 123 96 193 220 l37 65 14
210 c9 116 18 234 21 264 6 66 -21 167 -47 174 -23 6 -68 -14 -106 -46 -18
-15 -35 -27 -38 -27 -10 0 -7 65 5 98 15 45 -1 66 -79 107 -37 19 -78 41 -92
49 -14 8 -45 19 -68 26 -31 8 -49 20 -60 41 -21 36 -37 42 -82 29 -18 -5 -35
-9 -36 -7 -1 1 4 38 12 82 17 96 49 368 66 560 16 188 14 572 -4 703 l-15 102
66 62 c36 33 109 93 161 132 147 110 243 146 395 147 135 0 355 -51 378 -88 4
-7 17 -13 27 -13 33 0 193 -76 249 -119 19 -14 61 -42 92 -61 101 -61 182
-121 243 -179 99 -94 144 -143 159 -172 16 -34 84 -109 98 -109 6 0 9 -8 7
-17 -4 -19 0 -23 122 -158 39 -44 79 -96 88 -115 9 -19 19 -37 22 -40 3 -3 17
-23 32 -45 14 -22 38 -53 53 -70 33 -37 123 -204 176 -326 22 -51 48 -110 58
-133 32 -74 118 -309 140 -386 12 -41 28 -91 35 -110 8 -19 22 -64 31 -100 9
-36 21 -73 27 -83 5 -10 11 -33 13 -50 7 -55 27 -127 36 -133 5 -3 7 -10 3
-15 -5 -9 5 -52 42 -174 9 -27 21 -60 27 -72 5 -13 8 -26 4 -29 -3 -3 3 -30
14 -60 11 -29 21 -62 22 -74 1 -11 5 -20 9 -20 4 0 8 -9 8 -20 0 -20 7 -20
640 -20 l640 0 0 1711 0 1711 -22 19 c-13 10 -32 18 -44 19 -12 0 -37 11 -57
24 -19 13 -44 27 -54 30 -11 4 -25 18 -31 31 -7 14 -27 35 -46 46 -21 12 -39
33 -45 52 -6 18 -22 45 -36 61 -18 21 -25 41 -25 73 0 28 4 43 13 43 6 0 50
-16 97 -36 91 -37 224 -84 240 -84 6 0 10 6 10 13 0 7 -43 27 -102 46 -57 18
-107 37 -113 41 -5 4 -41 20 -80 35 -87 35 -108 48 -125 80 -7 14 -20 25 -28
25 -9 0 -12 6 -8 16 5 14 4 15 -9 4 -13 -11 -14 -10 -10 2 4 9 -10 30 -36 54
-23 21 -51 49 -62 61 -11 12 -24 20 -30 16 -5 -3 -6 3 -2 16 4 13 2 21 -5 21
-6 0 -8 5 -4 12 5 7 2 9 -8 5 -13 -4 -15 0 -13 20 2 17 -6 35 -21 50 -14 13
-21 29 -18 35 5 7 2 8 -6 3 -10 -6 -12 -4 -7 9 4 11 -1 29 -13 47 -12 15 -23
41 -25 56 -2 15 -8 40 -14 55 -11 28 -26 199 -22 260 1 21 3 88 5 150 2 62 12
169 22 238 14 98 18 188 18 420 0 284 -1 300 -27 422 -42 197 -113 377 -209
527 -15 24 -25 49 -21 55 3 6 3 8 -2 4 -9 -9 -24 9 -93 113 -57 85 -72 103
-152 187 -62 66 -100 113 -100 124 0 4 -3 7 -7 6 -5 -2 -38 28 -75 65 -37 37
-72 67 -78 67 -6 0 -9 4 -6 8 3 5 -4 16 -15 25 -22 20 -33 22 -23 5 4 -7 3 -8
-5 -4 -9 6 -9 11 1 24 11 13 11 15 -3 10 -17 -7 -66 39 -61 55 1 5 -2 6 -8 2
-5 -3 -10 -1 -10 5 0 6 -4 9 -9 5 -6 -3 -13 1 -18 8 -4 8 -18 19 -30 26 -13 6
-22 17 -20 23 1 6 -5 13 -13 15 -13 4 -13 3 0 -7 13 -10 13 -11 0 -7 -8 2 -14
11 -12 19 1 9 -8 19 -20 22 -22 7 -22 7 -3 16 18 7 18 9 3 15 -9 4 -23 3 -29
-1 -9 -5 -10 -2 -6 10 4 9 3 15 -2 11 -5 -3 -12 1 -15 7 -3 7 -4 2 -2 -12 2
-14 1 -19 -1 -12 -3 7 -8 10 -13 7 -5 -3 -12 0 -16 6 -4 7 -3 9 3 6 6 -4 13 2
16 12 3 13 -12 36 -48 75 -29 30 -55 52 -59 49 -4 -4 -9 2 -12 14 -3 12 -15
24 -26 26 -13 4 -19 11 -15 20 3 8 -5 25 -19 38 -13 12 -24 29 -24 37 0 8 -6
12 -14 9 -8 -3 -20 1 -27 9 -10 12 -9 13 7 8 12 -4 7 5 -14 23 -23 20 -31 34
-28 50 3 13 -1 29 -7 36 -32 34 -77 166 -90 267 -5 33 -26 139 -62 305 -8 39
-17 88 -19 110 -4 47 -16 96 -26 110 -4 6 -19 44 -34 85 -33 89 -130 304 -201
445 -42 84 -215 359 -236 375 -4 3 -15 19 -25 36 -66 109 -305 338 -454 435
-30 19 -93 61 -140 92 -85 55 -404 221 -550 286 -59 26 -320 115 -400 137
-147 39 -462 88 -635 99 -55 3 -118 7 -140 8 -22 2 -76 2 -120 0z m385 -43
c230 -26 402 -56 503 -87 217 -67 268 -84 345 -115 45 -19 79 -38 75 -43 -5
-4 -2 -5 4 -1 12 6 218 -88 228 -104 11 -17 -198 55 -230 80 -10 8 -16 9 -150
35 -44 8 -91 20 -105 26 -28 14 -50 18 -245 53 -77 14 -156 26 -176 26 -19 0
-39 4 -45 9 -5 5 -36 11 -69 14 -33 3 -85 13 -115 22 -155 47 -371 70 -645 67
-125 -1 -110 12 27 23 46 4 85 9 87 11 13 12 358 2 511 -16z m-1797 -320 c-13
-5 -23 -14 -23 -20 0 -5 -3 -9 -7 -8 -5 2 -19 -5 -33 -15 -16 -11 -19 -17 -10
-18 8 0 3 -5 -12 -11 -16 -5 -28 -15 -28 -22 0 -6 -12 -23 -27 -37 -35 -33
-69 -81 -65 -93 5 -15 -30 -116 -40 -116 -6 0 -7 -11 -4 -25 4 -14 2 -25 -3
-25 -5 0 -12 -9 -16 -20 -6 -20 -7 -20 -44 -1 -39 21 -151 53 -151 44 0 -3 -7
0 -15 7 -8 7 -15 15 -15 19 0 8 84 95 134 139 22 19 45 31 53 28 8 -3 12 -2 9
3 -7 11 52 53 64 46 6 -4 9 -1 8 5 -2 7 15 22 37 34 131 72 180 96 194 95 10
0 8 -3 -6 -9z m1891 -40 c17 -5 52 -12 79 -15 45 -6 47 -7 47 -39 0 -33 -17
-41 -46 -24 -6 4 -33 10 -60 13 -27 4 -59 13 -72 21 -20 13 -85 27 -134 28
-13 0 -14 4 -6 13 13 16 146 18 192 3z m358 -71 c9 -5 29 -9 44 -9 42 0 207
-42 225 -57 8 -7 32 -13 51 -13 20 0 41 -6 47 -14 7 -8 31 -16 54 -19 50 -5
109 -27 134 -49 32 -28 87 -51 123 -52 22 -1 34 -6 33 -13 -2 -8 9 -13 29 -13
27 0 181 -62 198 -80 3 -3 17 -11 33 -19 15 -8 27 -21 27 -29 0 -24 92 -101
123 -102 19 0 27 -5 27 -18 0 -16 67 -80 111 -107 118 -72 337 -271 423 -384
23 -30 53 -70 68 -90 15 -20 30 -43 33 -51 4 -8 12 -26 20 -40 7 -14 22 -43
33 -65 10 -22 29 -49 41 -59 11 -11 21 -29 21 -41 0 -12 6 -35 14 -51 8 -16
19 -41 25 -56 6 -16 17 -28 25 -28 8 0 18 -9 21 -20 3 -11 12 -21 18 -22 7 0
17 -2 22 -3 6 -2 16 -3 23 -4 6 0 12 -6 12 -12 0 -6 -12 -9 -27 -7 -24 3 -28
-1 -30 -26 -1 -16 9 -50 22 -75 13 -26 30 -81 39 -123 20 -98 23 -105 49 -112
21 -6 21 -7 4 -20 -16 -12 -18 -24 -13 -73 3 -32 6 -98 6 -148 -1 -49 4 -105
9 -123 9 -29 8 -32 -4 -22 -8 7 -15 24 -15 39 0 18 -13 40 -40 66 -21 22 -39
50 -40 61 0 12 -16 36 -35 53 -19 17 -35 37 -35 45 0 8 -3 17 -8 19 -4 3 -18
37 -32 76 -13 39 -28 71 -32 71 -12 0 -58 47 -52 53 3 3 -3 8 -13 11 -21 8
-52 51 -86 118 -13 25 -47 72 -75 103 -29 31 -52 61 -52 66 0 5 -6 9 -12 9
-24 1 -60 39 -54 57 4 11 -4 27 -23 47 -16 17 -40 47 -53 67 -13 20 -40 50
-60 67 -19 17 -48 50 -64 74 -16 24 -36 49 -45 55 -10 7 -29 34 -45 60 -15 27
-36 54 -46 61 -10 7 -25 29 -33 48 -8 19 -26 39 -40 46 -14 6 -28 22 -31 35
-4 16 -16 26 -35 30 -15 3 -38 16 -50 29 -13 14 -44 28 -75 35 -33 7 -54 18
-54 26 0 7 -9 13 -20 13 -11 0 -20 6 -20 14 0 20 -40 25 -67 8 -13 -8 -29 -12
-37 -9 -15 6 -62 68 -49 66 48 -9 43 27 -7 42 -32 10 -39 16 -35 30 5 15 -2
19 -39 24 -39 6 -46 11 -51 36 -8 34 -36 54 -53 37 -7 -7 -12 -18 -12 -25 0
-19 -41 -38 -50 -23 -4 7 -13 9 -19 6 -17 -11 -13 10 4 24 24 20 18 46 -15 60
-16 7 -30 16 -30 20 0 5 -20 16 -44 25 -25 10 -46 25 -49 36 -3 10 -18 21 -33
25 -16 4 -43 17 -59 29 -27 20 -104 39 -103 25 2 -24 -4 -40 -17 -40 -18 0
-20 27 -3 32 7 3 9 11 3 24 -7 17 -8 17 -12 2 -6 -23 -15 -23 -33 1 -7 11 -17
18 -22 15 -4 -3 -8 6 -8 19 0 25 -16 37 -51 37 -16 0 -19 -8 -20 -42 -1 -24
-4 -34 -6 -23 -3 11 -15 28 -26 37 -17 16 -23 16 -36 4 -16 -13 -51 -18 -51
-7 0 4 10 11 22 16 39 18 32 33 -17 41 -31 4 -55 2 -70 -6 -20 -11 -28 -10
-49 4 -27 17 -71 22 -80 8 -3 -5 -2 -18 1 -31 5 -18 12 -22 42 -20 59 3 71 0
71 -17 0 -10 -6 -14 -15 -10 -11 4 -15 -2 -15 -26 l0 -31 -72 7 c-41 4 -79 14
-88 22 -12 12 -12 14 3 14 10 0 17 8 17 20 0 22 -12 25 -41 10 -13 -7 -19 -7
-19 0 0 5 -7 10 -16 10 -8 0 -12 5 -9 10 3 6 15 10 25 10 10 0 26 8 35 17 10
9 31 24 49 32 30 16 32 21 25 71 -5 29 -11 28 115 6 69 -13 95 -22 112 -41 19
-21 23 -22 28 -8 4 9 2 19 -4 23 -6 4 -13 24 -17 46 -3 21 -2 36 2 32 4 -4 13
-1 21 6 10 10 25 11 66 4 29 -5 60 -14 70 -19z m858 5 c0 -2 -9 0 -20 6 -11 6
-20 13 -20 16 0 2 9 0 20 -6 11 -6 20 -13 20 -16z m-2002 -97 c-18 -15 -28
-32 -28 -49 0 -15 -8 -32 -17 -37 -32 -18 46 -13 89 6 37 17 50 33 26 33 -7 0
-5 5 5 11 24 14 48 4 41 -16 -5 -12 3 -15 37 -16 63 -2 120 -7 152 -13 15 -3
38 -1 51 6 19 8 34 7 65 -5 22 -9 42 -13 45 -8 6 10 72 5 101 -8 11 -5 35 -14
53 -21 17 -7 32 -16 32 -21 0 -11 5 -12 -119 8 -83 14 -172 17 -411 18 -168 0
-330 -3 -360 -7 -30 -4 -45 -4 -33 0 13 4 31 14 41 22 10 8 61 36 113 62 80
41 106 51 139 56 3 1 -7 -9 -22 -21z m-318 -77 c0 -5 -6 -10 -14 -10 -8 0 -16
-6 -19 -14 -3 -8 -24 -17 -46 -21 -23 -4 -41 -11 -41 -17 0 -6 -11 -8 -25 -6
-14 3 -25 1 -25 -3 0 -5 -4 -9 -9 -9 -4 0 -8 10 -7 23 1 17 10 24 41 32 22 6
46 14 53 18 7 5 21 5 32 2 11 -4 20 -2 20 4 0 6 9 11 20 11 11 0 20 -4 20 -10z
m-355 -100 c11 -5 15 -9 8 -9 -6 -1 -18 -3 -26 -6 -8 -4 -14 0 -14 10 0 17 3
17 32 5z m1835 -13 c0 -13 -58 -43 -66 -34 -3 3 -3 15 1 26 4 15 15 21 36 21
17 0 29 -5 29 -13z m483 -344 c-7 -2 -21 -2 -30 0 -10 3 -4 5 12 5 17 0 24 -2
18 -5z m153 -18 c9 -8 11 -15 6 -15 -5 0 -15 7 -22 15 -7 8 -9 15 -6 15 4 0
14 -7 22 -15z m141 -105 c7 0 13 -9 13 -20 0 -20 0 -20 -19 -1 -10 10 -22 30
-25 43 l-6 23 11 -22 c7 -13 18 -23 26 -23z m93 -90 c0 -5 -4 -10 -9 -10 -6 0
-13 5 -16 10 -3 6 1 10 9 10 9 0 16 -4 16 -10z m940 -124 c28 -54 49 -100 46
-103 -4 -4 -17 18 -59 102 -11 22 -22 42 -26 45 -3 3 -17 25 -30 50 -21 41
-21 43 -3 25 11 -11 44 -64 72 -119z m-1900 14 c0 -5 -5 -10 -11 -10 -5 0 -7
5 -4 10 3 6 8 10 11 10 2 0 4 -4 4 -10z m180 -135 c0 -7 -7 -15 -15 -19 -8 -3
-15 -12 -15 -21 0 -10 -10 -15 -29 -15 -16 0 -31 -5 -33 -12 -2 -6 -12 -12
-21 -14 -14 -2 -16 2 -11 18 3 11 2 18 -2 15 -5 -3 -10 6 -10 19 -2 19 3 24
21 24 13 0 27 -4 30 -10 3 -5 17 -10 31 -10 19 0 24 5 24 25 0 18 4 23 15 19
8 -4 15 -12 15 -19z m-230 5 c0 -5 -7 -10 -16 -10 -8 0 -12 5 -9 10 3 6 10 10
16 10 5 0 9 -4 9 -10z m-76 -22 c5 -10 7 -10 12 0 8 17 24 15 24 -3 0 -8 5
-15 10 -15 14 0 12 -32 -3 -51 -10 -13 -21 -15 -52 -9 -22 4 -36 8 -32 9 4 0
3 9 -2 20 -8 13 -6 24 7 39 20 25 28 27 36 10z m146 -104 c0 -13 -25 -26 -33
-17 -3 3 -3 11 -1 17 6 16 34 16 34 0z m-180 -44 c0 -5 -4 -10 -10 -10 -5 0
-10 5 -10 10 0 6 5 10 10 10 6 0 10 -4 10 -10z m2230 -107 c0 -7 -4 -13 -9
-13 -6 0 -10 8 -10 18 1 9 -2 28 -5 42 -5 21 -4 20 8 -5 9 -16 15 -36 16 -42z
m-3542 -90 c42 -26 72 -55 66 -65 -7 -12 -54 18 -82 53 -27 33 -23 36 16 12z
m1243 -93 c23 -13 26 -60 4 -60 -9 0 -28 11 -43 25 -23 22 -25 27 -12 35 19
12 27 12 51 0z m-358 -40 c-3 -11 -7 -20 -9 -20 -2 0 -4 9 -4 20 0 11 4 20 9
20 5 0 7 -9 4 -20z m255 -30 c7 -19 20 -32 36 -36 14 -3 26 -10 26 -14 0 -4 9
-10 20 -13 14 -3 20 -14 20 -31 0 -14 5 -26 10 -26 6 0 10 -10 10 -21 0 -19
-4 -21 -37 -16 -21 4 -39 10 -41 15 -3 9 -55 7 -72 -3 -7 -4 -10 11 -9 51 2
48 -1 60 -19 75 -12 9 -22 23 -22 31 0 11 2 11 9 0 7 -11 9 -11 14 2 11 27 44
19 55 -14z m197 9 c8 -23 -7 -45 -24 -35 -12 8 -15 39 -4 49 12 12 22 7 28
-14z m-292 -13 c4 -10 1 -13 -9 -9 -15 6 -19 23 -5 23 5 0 11 -7 14 -14z m417
-83 c0 -16 -8 -25 -25 -29 -26 -7 -50 5 -27 13 6 3 12 17 12 32 0 15 3 31 7
34 9 10 32 -25 33 -50z m2154 31 c3 -8 2 -12 -4 -9 -6 3 -10 10 -10 16 0 14 7
11 14 -7z m-3304 -24 c8 -5 12 -11 9 -14 -3 -3 -14 1 -25 9 -21 16 -8 20 16 5z
m604 -40 c31 3 56 2 56 -3 0 -4 7 -15 16 -24 23 -23 6 -31 -51 -24 -57 7 -113
41 -100 61 6 10 9 10 16 -2 6 -11 21 -13 63 -8z m-939 -30 c16 -17 16 -20 3
-15 -9 4 -19 13 -22 21 -7 19 -2 18 19 -6z m385 0 c0 -5 -2 -10 -4 -10 -3 0
-8 5 -11 10 -3 6 -1 10 4 10 6 0 11 -4 11 -10z m-37 -121 c-3 -17 -1 -29 5
-29 5 0 8 9 5 20 -3 11 -1 20 3 20 14 0 45 -61 37 -72 -3 -7 -1 -8 5 -4 15 9
33 -28 26 -51 -4 -12 -3 -14 3 -6 6 9 12 7 21 -7 10 -17 9 -18 -6 -13 -16 6
-16 5 1 -14 9 -11 17 -25 17 -32 0 -7 -16 7 -36 31 -19 23 -46 57 -60 73 -14
17 -36 45 -50 63 -14 17 -32 32 -40 32 -8 0 -14 9 -14 20 0 13 5 18 14 14 8
-3 23 -1 33 5 25 14 44 -12 36 -50z m127 -69 c0 -5 -2 -10 -4 -10 -3 0 -8 5
-11 10 -3 6 -1 10 4 10 6 0 11 -4 11 -10z m653 -32 c12 -7 34 -11 50 -9 22 2
27 -2 27 -18 0 -12 5 -21 10 -21 6 0 10 5 10 10 0 6 5 10 11 10 5 0 7 -4 4
-10 -3 -5 2 -10 12 -10 26 -1 51 -22 58 -52 4 -14 24 -43 46 -64 21 -21 44
-52 49 -70 10 -29 15 -33 39 -28 18 4 33 0 44 -10 8 -9 22 -16 29 -16 15 0 38
-19 38 -31 0 -4 -9 -5 -20 -2 -11 3 -20 0 -20 -6 0 -6 9 -11 19 -11 10 0 21
-7 25 -15 3 -9 18 -15 40 -15 25 0 35 -5 39 -20 3 -11 -1 -23 -7 -28 -7 -4
-19 -18 -26 -31 -16 -32 4 -71 37 -71 13 0 23 -4 23 -10 0 -5 -7 -10 -15 -10
-17 0 -14 -5 27 -50 14 -15 14 -22 3 -43 -12 -24 -11 -27 18 -49 16 -13 34
-22 39 -21 11 4 10 -14 -2 -38 -13 -24 -27 -24 -34 -1 -5 16 -54 52 -70 52 -3
0 -6 -8 -6 -19 0 -22 -46 -71 -69 -72 -13 0 -14 -2 -1 -6 22 -9 40 -30 40 -46
0 -18 -21 -27 -61 -27 -23 0 -29 5 -29 21 0 11 4 28 10 38 8 16 5 20 -21 25
-17 3 -39 1 -49 -4 -16 -9 -22 -5 -35 20 -11 22 -12 30 -3 28 7 -2 14 7 16 20
3 21 0 23 -25 20 -18 -2 -27 2 -25 10 1 6 -2 12 -8 12 -5 0 -10 8 -10 19 0 22
-23 44 -35 33 -5 -4 -5 -2 -2 4 4 7 0 18 -9 25 -14 11 -13 14 8 22 21 8 22 9
6 21 -10 7 -18 23 -18 35 0 14 -6 21 -19 21 -11 0 -22 6 -25 13 -3 6 -4 -1 -1
-18 4 -27 3 -27 -15 10 -11 22 -20 53 -20 68 0 16 -4 26 -9 22 -5 -3 -17 9
-25 27 -15 30 -15 33 6 55 21 22 55 33 43 13 -3 -5 -2 -10 3 -10 5 0 12 -9 15
-20 7 -29 36 -25 48 7 9 24 7 31 -16 50 -44 38 -124 27 -111 -15 4 -11 3 -23
-2 -26 -10 -6 -28 26 -37 68 -3 17 -13 35 -22 41 -11 8 -15 30 -15 82 0 60 -3
71 -17 68 -19 -3 -51 23 -51 42 0 8 6 20 12 27 13 14 34 10 81 -16z m-625 -29
c-3 -8 -7 -3 -11 10 -4 17 -3 21 5 13 5 -5 8 -16 6 -23z m-15 -79 c3 -11 1
-18 -4 -14 -5 3 -9 12 -9 20 0 20 7 17 13 -6z m27 -95 c0 -8 -2 -15 -4 -15 -2
0 -6 7 -10 15 -3 8 -1 15 4 15 6 0 10 -7 10 -15z m30 -70 c9 -28 9 -29 -5 -11
-8 11 -14 34 -14 50 1 20 3 24 6 11 2 -11 8 -33 13 -50z m60 55 c0 -5 -2 -10
-4 -10 -3 0 -8 5 -11 10 -3 6 -1 10 4 10 6 0 11 -4 11 -10z m-40 -168 c0 -7
-4 -10 -10 -7 -5 3 -10 16 -10 28 0 18 2 19 10 7 5 -8 10 -21 10 -28z m176
-61 c13 -20 30 -62 36 -93 7 -32 16 -58 20 -58 4 0 17 -18 28 -41 21 -39 21
-41 3 -55 -17 -13 -16 -15 17 -18 21 -2 48 -54 33 -64 -8 -5 -9 -13 -3 -22 9
-13 10 -13 10 0 0 8 11 -3 23 -25 13 -22 35 -53 51 -68 15 -15 24 -32 21 -37
-3 -6 -2 -10 3 -10 5 0 13 -8 16 -17 8 -22 27 -55 46 -79 8 -11 -24 21 -72 69
-48 49 -93 102 -100 118 -7 16 -21 32 -30 35 -10 3 -18 14 -18 25 0 11 -4 18
-8 15 -14 -8 -40 58 -36 90 2 16 2 24 -2 17 -8 -17 -42 19 -50 54 -7 26 -6 27
11 13 17 -14 17 -13 10 9 -5 18 -4 22 5 16 8 -5 11 -4 7 2 -4 6 -17 8 -30 6
-21 -4 -26 2 -47 59 -13 34 -27 68 -32 75 -5 6 -5 14 1 17 5 3 7 16 4 29 -4
18 -3 19 6 7 6 -9 11 -10 11 -3 0 6 8 13 18 15 12 2 18 -4 20 -21 2 -13 15
-41 28 -60z m-124 37 c1 -22 4 -38 8 -48 1 -3 3 -14 5 -25 2 -11 9 -21 14 -23
14 -5 14 -22 1 -22 -5 0 -16 12 -24 28 -16 32 -27 112 -15 112 5 0 10 -10 11
-22z m3432 -239 c-3 -5 2 -9 11 -9 10 0 13 5 9 13 -4 6 2 4 14 -7 18 -15 19
-22 10 -40 -7 -13 -13 -16 -16 -8 -2 6 -9 9 -14 6 -7 -4 -8 -2 -4 4 4 7 -3 17
-18 24 -31 13 -35 39 -6 31 11 -3 17 -9 14 -14z m-54 -72 c0 -5 -4 -5 -10 -2
-5 3 -10 14 -10 23 0 15 2 15 10 2 5 -8 10 -19 10 -23z m85 -28 c-3 -4 4 -11
15 -14 17 -5 19 -10 9 -21 -9 -11 -8 -14 3 -14 8 0 18 4 24 9 5 5 17 1 29 -11
l20 -21 -23 12 c-18 10 -25 9 -38 -4 -20 -20 -27 -19 -49 5 -11 12 -13 20 -6
20 7 0 9 5 6 10 -4 6 -11 8 -16 4 -5 -3 -8 -1 -7 4 2 6 -1 10 -7 10 -15 1 -24
36 -12 50 8 10 15 8 33 -9 13 -12 21 -25 19 -30z m-2218 12 c-3 -14 -1 -18 9
-14 8 3 14 9 14 14 0 14 27 11 33 -4 3 -7 3 -25 0 -40 -7 -34 -53 -40 -53 -7
0 11 -4 20 -10 20 -11 0 -14 33 -3 43 11 12 15 7 10 -12z m2433 -172 c0 -5 -4
-9 -10 -9 -5 0 -10 7 -10 16 0 8 5 12 10 9 6 -3 10 -10 10 -16z m-2830 -27 c0
-15 -2 -15 -10 -2 -13 20 -13 33 0 25 6 -3 10 -14 10 -23z m2760 14 c0 -9 7
-12 20 -9 11 3 28 -1 37 -8 10 -8 14 -9 10 -2 -15 24 15 24 34 -1 11 -15 24
-24 28 -22 4 3 12 -4 19 -15 11 -16 9 -19 -8 -19 -13 0 -20 -7 -20 -19 0 -11
-6 -26 -13 -33 -7 -7 -16 -21 -20 -30 -7 -19 -57 -26 -57 -8 0 6 -7 10 -17 10
-13 0 -12 3 5 19 23 19 29 41 12 41 -5 0 -12 11 -16 25 -3 14 -10 22 -15 19
-5 -3 -6 2 -3 10 4 11 0 16 -15 16 -14 0 -21 6 -21 20 0 13 7 20 20 20 11 0
20 -6 20 -14z m-2630 -38 c0 -5 -3 -7 -7 -6 -5 1 -18 -3 -30 -10 -26 -14 -27
-13 -13 23 9 22 12 24 30 13 11 -7 20 -16 20 -20z m66 2 c-3 -19 -2 -29 4 -25
6 3 10 0 10 -8 0 -8 9 -17 21 -20 22 -6 21 -34 -1 -29 -7 1 -18 -2 -24 -8 -16
-13 -26 -3 -26 27 0 13 -4 23 -10 23 -5 0 -10 12 -10 26 0 19 4 25 15 20 9 -3
15 0 15 9 0 8 3 15 6 15 4 0 4 -14 0 -30z m344 19 c0 -5 -5 -7 -10 -4 -6 3
-14 -4 -19 -17 -10 -23 -10 -22 -10 5 -1 21 4 27 19 27 11 0 20 -5 20 -11z
m-523 -15 c-3 -3 -1 -11 4 -18 43 -51 51 -64 56 -88 3 -16 11 -28 17 -28 16 0
35 -35 27 -48 -12 -20 -36 7 -80 91 -37 70 -43 97 -24 97 4 0 4 -3 0 -6z m132
-48 c9 -11 6 -15 -14 -18 -27 -6 -41 5 -30 22 9 14 31 12 44 -4z m2826 -54
c-3 -3 -11 0 -18 7 -9 10 -8 11 6 5 10 -3 15 -9 12 -12z m-2791 -47 c3 -8 2
-15 -3 -15 -5 0 -14 7 -21 15 -10 12 -10 15 3 15 8 0 17 -7 21 -15z m2766 5
c-19 -13 -30 -13 -30 0 0 6 10 10 23 10 18 0 19 -2 7 -10z m-2613 -40 c12 0
23 -3 23 -8 0 -4 19 -6 41 -4 28 3 44 0 50 -9 12 -19 11 -29 -2 -29 -5 0 -7 6
-3 13 6 10 4 10 -7 0 -7 -7 -21 -13 -31 -13 -10 0 -18 -5 -18 -10 0 -6 -6 -10
-12 -8 -25 5 -68 -13 -68 -27 0 -8 -4 -15 -9 -15 -5 0 -18 -3 -28 -7 -14 -5
-13 -2 5 14 27 25 28 30 1 29 -28 -1 -50 51 -28 65 10 6 4 9 -18 9 -17 0 -33
-3 -36 -7 -2 -5 -2 -2 0 5 1 8 3 20 3 27 0 11 12 10 57 -6 31 -10 67 -19 80
-19z m2720 15 c4 -4 2 -5 -6 0 -10 6 -12 2 -6 -14 4 -12 2 -21 -4 -21 -6 0
-11 4 -11 9 0 5 -3 16 -6 24 -6 17 19 18 33 2z m-2908 -32 c-4 -22 3 -33 18
-33 9 0 14 -3 10 -6 -3 -4 5 -21 19 -40 21 -27 23 -36 14 -51 -9 -16 -10 -15
-4 6 4 14 2 21 -3 18 -19 -12 -91 91 -76 107 9 8 23 8 22 -1z m345 -53 c49 0
106 -20 106 -36 0 -19 -11 -23 -81 -25 -50 -1 -67 -6 -80 -21 -9 -11 -33 -24
-55 -28 -21 -4 -45 -9 -53 -11 -8 -2 -17 4 -19 15 -3 14 0 17 12 13 9 -4 16
-2 16 4 0 6 5 7 10 4 6 -3 10 0 10 7 0 8 15 18 33 23 27 8 33 15 35 44 3 25 6
31 15 22 6 -6 29 -11 51 -11z m696 10 c0 -5 -4 -10 -10 -10 -5 0 -10 5 -10 10
0 6 5 10 10 10 6 0 10 -4 10 -10z m1501 -40 c8 -10 35 -28 59 -40 24 -12 52
-33 63 -46 10 -13 25 -24 33 -24 24 0 177 -139 281 -256 96 -107 143 -190 143
-251 0 -14 6 -37 14 -51 18 -33 30 -81 27 -104 -2 -12 5 -18 19 -18 19 0 20
-4 15 -96 -4 -69 -2 -101 7 -112 19 -23 15 -157 -5 -180 -21 -23 -21 -39 -1
-50 13 -7 15 -15 7 -38 -6 -19 -6 -43 0 -68 7 -28 7 -52 -1 -83 -7 -24 -12
-52 -12 -62 0 -11 -6 -26 -13 -33 -8 -7 -22 -30 -31 -50 -11 -22 -27 -39 -42
-42 -21 -6 -22 -9 -12 -26 8 -12 24 -20 40 -20 21 0 28 -5 28 -20 0 -11 -6
-20 -14 -20 -17 0 -41 -28 -32 -37 4 -4 11 -1 15 6 15 23 24 -26 26 -129 0
-52 4 -107 9 -122 l8 -26 -78 3 c-44 2 -80 8 -82 14 -7 21 -20 11 -17 -11 2
-13 5 -32 7 -43 2 -12 -4 -21 -14 -23 -13 -3 -18 3 -18 22 0 16 -7 27 -21 31
l-21 7 21 15 c21 14 29 53 11 53 -5 0 -10 7 -10 15 0 19 -3 19 -41 -4 -30 -19
-31 -19 -74 5 -42 24 -56 46 -69 107 -4 15 -15 36 -26 47 -11 11 -22 31 -26
46 -4 14 -18 38 -31 52 -14 15 -22 34 -20 44 4 12 -1 18 -13 18 -14 0 -18 8
-17 36 1 19 -5 39 -12 43 -7 5 -12 11 -11 15 0 4 -6 14 -15 22 -8 9 -15 12
-15 7 -1 -19 -20 24 -20 45 0 13 -6 22 -15 22 -20 0 -19 37 1 48 8 5 17 21 18
36 2 16 10 33 17 38 10 6 6 7 -11 2 -21 -6 -18 1 24 46 l49 52 -6 63 c-3 48
-13 79 -41 128 -31 57 -33 64 -16 60 20 -5 20 -5 1 38 -11 24 -26 48 -33 54
-20 15 -18 212 2 225 12 8 12 10 -5 10 -11 0 -15 4 -10 8 13 9 17 32 6 32 -5
0 -12 -6 -15 -12 -2 -7 -3 4 -1 24 2 20 5 62 6 93 1 31 6 58 10 61 4 2 4 18
-1 35 -6 20 -6 39 0 50 12 22 13 32 1 25 -5 -3 -7 35 -6 86 3 91 -11 148 -35
148 -6 0 -10 8 -10 18 0 10 -7 28 -16 40 -9 13 -13 30 -10 39 6 14 9 13 34 -2
15 -9 34 -25 43 -35z m-1531 30 c12 -5 -80 -19 -125 -18 l-50 0 38 12 c31 10
119 13 137 6z m46 -25 c4 -8 12 -15 20 -15 16 0 19 -26 4 -35 -18 -11 -40 -76
-40 -117 0 -31 -6 -44 -30 -64 -42 -36 -54 -89 -44 -204 4 -52 8 -187 9 -300
1 -221 9 -270 47 -270 17 0 19 5 15 28 -25 131 -28 174 -25 312 2 85 -1 196
-6 246 -10 107 -6 131 31 175 20 23 28 45 30 75 1 49 44 118 97 159 41 31 54
31 97 -1 52 -39 73 -44 181 -45 177 -1 220 -26 339 -202 61 -91 96 -191 86
-246 -3 -14 2 -36 11 -49 11 -18 15 -51 16 -135 0 -139 -24 -212 -110 -331
-116 -161 -235 -267 -343 -305 l-55 -19 -60 54 c-50 45 -74 59 -143 80 -70 22
-94 25 -165 21 -46 -3 -98 -9 -115 -12 -28 -6 -44 0 -105 38 -86 54 -200 152
-190 163 4 4 1 4 -6 0 -8 -5 -27 8 -52 34 -45 46 -46 50 -25 50 8 0 14 -5 12
-12 -3 -14 67 -50 71 -37 3 6 9 6 16 0 7 -6 26 -12 43 -14 17 -2 48 -14 69
-26 40 -24 175 -48 196 -35 7 4 8 3 4 -4 -5 -8 0 -12 13 -12 34 0 69 -21 81
-50 6 -15 23 -32 36 -39 31 -14 31 -14 31 4 0 8 -3 12 -7 10 -3 -2 -14 5 -23
16 -9 10 -13 19 -9 19 4 0 0 5 -8 10 -13 8 -13 10 1 10 9 0 60 -23 115 -51 91
-47 204 -94 204 -84 0 2 -42 25 -92 50 -51 25 -115 59 -143 75 -27 17 -74 42
-103 57 -30 16 -73 47 -97 71 -24 23 -47 42 -51 42 -5 0 -18 14 -29 30 -11 17
-28 33 -38 36 -29 9 -77 55 -70 67 3 7 3 9 -2 5 -13 -12 -35 12 -35 37 0 12
-7 41 -15 64 -19 54 -24 137 -13 231 4 41 11 134 14 205 5 102 10 134 22 146
26 26 141 66 209 74 58 6 64 5 88 -20 37 -36 49 -28 26 18 -15 30 -16 37 -5
37 8 0 17 -7 20 -15z m477 -2 c-13 -2 -33 -2 -45 0 -13 2 -3 4 22 4 25 0 35
-2 23 -4z m72 -3 c18 -8 17 -9 -7 -9 -16 -1 -28 4 -28 9 0 12 8 12 35 0z
m1430 -20 c10 -11 16 -20 13 -20 -3 0 -13 9 -23 20 -10 11 -16 20 -13 20 3 0
13 -9 23 -20z m-2324 2 c14 -6 13 -10 -5 -29 -19 -19 -23 -20 -40 -8 -16 12
-17 17 -6 30 13 16 25 18 51 7z m1156 -58 c23 -13 63 -49 88 -79 32 -37 55
-55 70 -55 40 0 54 -11 61 -46 11 -59 -1 -80 -64 -114 -32 -17 -70 -42 -85
-56 -29 -26 -29 -26 -42 30 -14 66 -100 218 -157 281 l-59 64 28 4 c50 8 117
-5 160 -29z m-1771 -3 c-3 -4 3 -16 14 -26 11 -10 20 -23 20 -29 -1 -6 -12 2
-25 18 -21 26 -25 46 -9 46 3 0 3 -4 0 -9z m-525 -43 c13 -17 30 -37 37 -44 6
-7 12 -16 12 -21 0 -10 44 -52 76 -73 12 -9 36 -32 52 -52 16 -21 32 -35 34
-32 3 3 8 -2 12 -11 3 -9 2 -15 -3 -13 -26 9 -202 193 -249 259 -23 32 4 21
29 -13z m854 -8 c-5 -8 -11 -8 -17 -2 -6 6 -7 16 -3 22 5 8 11 8 17 2 6 -6 7
-16 3 -22z m-211 -15 c5 -22 4 -26 -4 -15 -5 8 -10 24 -10 34 0 26 6 18 14
-19z m2956 -22 c6 -7 4 -13 -8 -18 -9 -3 -13 -3 -10 1 9 9 -17 34 -36 34 -23
0 -28 18 -9 29 14 8 22 6 35 -12 10 -12 22 -27 28 -34z m-2513 5 c-3 -7 -5 -2
-5 12 0 14 2 19 5 13 2 -7 2 -19 0 -25z m-510 0 c-3 -8 -6 -5 -6 6 -1 11 2 17
5 13 3 -3 4 -12 1 -19z m284 3 c7 12 9 12 9 -1 0 -13 1 -13 10 0 13 18 2 -36
-11 -60 -7 -12 -8 -10 -9 8 0 15 -6 22 -20 22 -14 0 -20 7 -20 21 0 18 2 20
16 8 13 -10 17 -10 25 2z m99 0 c0 -16 -19 -23 -40 -16 -30 10 -24 25 10 25
17 0 30 -4 30 -9z m-282 -46 c-3 -3 -9 2 -12 12 -6 14 -5 15 5 6 7 -7 10 -15
7 -18z m2840 3 c7 -7 12 -20 12 -30 0 -10 6 -18 13 -19 7 0 6 -3 -3 -6 -8 -4
-20 -13 -27 -22 -9 -11 -12 -12 -13 -3 0 7 -5 10 -11 6 -8 -5 -10 1 -7 20 3
16 0 33 -8 41 -11 10 -11 15 -1 18 21 9 33 7 45 -5z m102 2 c0 -5 -5 -10 -11
-10 -5 0 -7 5 -4 10 3 6 8 10 11 10 2 0 4 -4 4 -10z m-2701 -38 c9 -22 19 -29
42 -30 16 0 29 4 29 9 0 5 7 9 15 9 8 0 15 6 16 13 0 6 5 -3 10 -20 5 -18 14
-33 19 -33 6 0 10 -7 10 -15 0 -25 -23 -65 -37 -65 -7 0 -16 -7 -20 -15 -5
-14 -7 -14 -23 0 -27 24 -62 4 -58 -33 4 -33 32 -41 59 -16 18 17 19 16 20
-19 1 -21 2 -52 3 -69 1 -18 -2 -38 -7 -45 -5 -7 -4 -21 3 -35 l11 -23 -20 24
c-12 12 -19 27 -16 31 3 4 -2 13 -10 20 -8 7 -15 9 -15 5 0 -5 -9 2 -20 15
-11 12 -17 27 -14 32 3 4 1 7 -4 6 -6 -2 -24 16 -40 39 -30 41 -31 42 -12 63
10 12 22 21 27 20 4 -1 9 6 11 14 2 11 -4 16 -17 16 -12 0 -21 4 -21 9 0 5
-13 11 -30 15 -21 4 -30 11 -30 25 0 16 8 20 38 23 32 3 37 7 40 31 4 35 26
35 41 -1z m2781 -72 c0 -3 -9 -6 -20 -7 -11 -1 -20 2 -20 8 0 5 -9 9 -20 9
-21 0 -27 15 -10 25 6 3 10 16 10 27 0 18 5 15 30 -18 16 -21 30 -41 30 -44z
m-2620 56 c0 -2 -7 -9 -15 -16 -12 -10 -15 -10 -15 4 0 9 7 16 15 16 8 0 15
-2 15 -4z m-389 -69 c-10 -9 -11 -8 -5 6 3 10 9 15 12 12 3 -3 0 -11 -7 -18z
m70 -70 c12 -22 12 -22 -10 -3 -11 11 -21 23 -21 28 0 14 19 -1 31 -25z m2993
17 c3 -8 2 -12 -4 -9 -6 3 -10 10 -10 16 0 14 7 11 14 -7z m-1144 -4 c19 -6
69 -20 110 -31 126 -34 155 -76 155 -224 0 -79 -4 -107 -19 -135 -24 -44 -109
-158 -178 -238 -29 -33 -70 -85 -91 -115 -62 -89 -151 -172 -199 -187 -24 -8
-70 -26 -103 -40 -185 -83 -273 -110 -357 -110 -54 0 -58 2 -73 31 -22 41 -15
53 36 68 62 18 102 45 202 134 64 57 106 107 157 184 108 164 134 272 107 456
l-14 98 61 44 c100 71 141 84 206 65z m-2350 -4 c0 -3 -4 -8 -10 -11 -5 -3
-10 -1 -10 4 0 6 5 11 10 11 6 0 10 -2 10 -4z m3523 -46 c4 -17 3 -19 -9 -9
-8 6 -14 18 -14 26 0 20 16 8 23 -17z m-3468 -22 c35 -36 36 -38 10 -21 -36
25 -72 63 -59 63 6 0 28 -19 49 -42z m3516 -45 c35 -57 80 -166 74 -180 -2 -7
0 -12 6 -10 30 6 99 -298 113 -498 5 -62 4 -65 -5 -30 -6 22 -13 58 -16 80 -3
22 -10 43 -14 46 -5 3 -11 31 -13 62 -1 32 -6 57 -11 56 -16 -2 -25 27 -25 79
0 28 -4 52 -9 52 -5 0 -9 18 -9 41 -1 22 -5 46 -10 52 -11 16 -32 89 -32 114
0 11 -9 28 -20 38 -16 14 -60 110 -60 130 0 12 10 2 31 -32z m-188 10 c3 -5
-8 -8 -23 -8 -15 0 -26 3 -23 8 2 4 13 7 23 7 10 0 21 -3 23 -7z m-775 -414
c-29 -16 -21 -28 22 -35 21 -4 46 -14 53 -23 32 -35 69 -122 70 -163 2 -39 -4
-51 -44 -99 -55 -65 -75 -100 -89 -156 -12 -48 -49 -97 -90 -118 -16 -8 -36
-23 -46 -32 -51 -51 -247 -160 -349 -193 -77 -26 -404 -10 -442 22 -7 6 -18
29 -24 52 -6 22 -17 59 -24 82 l-13 41 72 16 c130 30 280 75 341 101 33 14 71
26 84 26 73 0 175 94 302 276 95 136 160 214 178 214 14 -1 13 -2 -1 -11z
m1158 -383 c3 -8 4 -29 2 -48 -3 -32 -3 -32 -14 15 -6 26 -7 47 -2 47 5 0 11
-6 14 -14z m-7061 -73 c2 -7 10 -13 16 -13 8 0 7 5 -2 17 -8 10 -9 14 -2 10 7
-4 43 -9 82 -12 39 -2 79 -9 91 -15 11 -6 20 -8 20 -4 0 3 6 2 13 -4 7 -7 37
-16 65 -23 29 -6 54 -15 57 -20 6 -8 -16 -56 -41 -89 -6 -8 -14 -35 -18 -59
-5 -31 -17 -54 -45 -82 -39 -40 -103 -68 -109 -49 -2 5 -8 10 -13 10 -6 0 -26
15 -45 34 -27 26 -31 35 -19 39 17 7 20 42 5 52 -22 13 -9 34 25 41 19 3 32
10 29 15 -3 5 0 9 5 9 6 0 11 5 11 11 0 8 -12 10 -34 6 -27 -4 -35 -2 -39 12
-2 10 -1 25 4 32 6 12 0 14 -32 11 -48 -5 -62 -29 -55 -100 4 -52 -2 -84 -15
-76 -5 3 -9 0 -9 -5 0 -6 6 -11 13 -11 7 0 18 -10 26 -22 10 -18 11 -20 0 -10
-7 6 -20 12 -28 12 -13 -1 -13 -2 2 -11 9 -5 17 -15 17 -21 0 -7 -4 -7 -14 1
-7 6 -21 9 -30 5 -9 -3 -16 -1 -16 5 0 6 6 11 13 11 6 0 -1 12 -16 26 -23 20
-27 27 -17 39 7 8 15 14 18 13 33 -4 35 2 27 80 -5 42 -8 87 -8 99 1 15 -7 23
-25 28 -21 5 -23 8 -11 16 20 13 98 7 104 -8z m-170 -3 c-3 -5 -11 -10 -16
-10 -6 0 -7 5 -4 10 3 6 11 10 16 10 6 0 7 -4 4 -10z m7230 -20 c-3 -5 -10
-10 -16 -10 -5 0 -9 5 -9 10 0 6 7 10 16 10 8 0 12 -4 9 -10z m-7495 -74 c0
-9 -71 -48 -77 -43 -3 3 10 15 28 26 33 20 49 26 49 17z m-115 -46 c-3 -5 -13
-10 -21 -10 -8 0 -14 5 -14 10 0 6 9 10 21 10 11 0 17 -4 14 -10z m-104 -130
c-14 -13 -37 -20 -60 -19 -35 1 -35 1 19 19 69 23 70 23 41 0z m26 -10 c-14
-11 -29 -20 -34 -20 -10 1 39 39 51 40 5 0 -3 -9 -17 -20z m38 -4 c-9 -13 -24
-27 -33 -31 -10 -4 -5 6 12 24 36 37 42 39 21 7z m43 -88 c29 -116 33 -138 27
-138 -3 0 -40 7 -81 16 -77 15 -294 17 -294 2 0 -5 -14 -8 -30 -8 -70 0 -203
-90 -314 -213 -50 -55 -56 -65 -50 -92 4 -16 6 -64 5 -106 -2 -51 3 -89 13
-114 9 -21 14 -40 12 -42 -2 -3 -25 11 -50 31 -25 19 -54 37 -63 40 -11 4 -25
29 -37 66 -10 33 -32 77 -48 98 -17 20 -34 47 -39 60 -12 31 5 70 36 82 14 5
25 15 25 23 0 7 18 31 41 52 22 22 60 69 84 105 52 78 98 124 145 144 63 26
393 60 360 37 -19 -13 -14 -13 29 -1 19 5 38 7 43 4 14 -9 -31 -29 -102 -47
-62 -16 -86 -27 -59 -27 18 0 133 33 176 51 24 10 36 10 44 2 11 -11 -57 -57
-154 -103 -26 -12 -46 -24 -44 -26 7 -8 122 48 170 82 55 40 75 38 107 -7 12
-16 25 -29 30 -29 13 0 1 29 -27 68 -24 32 -24 34 -7 53 9 10 20 19 24 19 4 0
16 -37 28 -82z m5922 -58 c-19 -13 -30 -13 -30 0 0 6 10 10 23 10 18 0 19 -2
7 -10z m-80 -10 c0 -5 -2 -10 -4 -10 -3 0 -8 5 -11 10 -3 6 -1 10 4 10 6 0 11
-4 11 -10z m-5867 -97 c63 -6 66 -9 78 -61 6 -28 4 -41 -9 -57 -15 -18 -15
-18 0 -7 17 14 19 7 42 -127 3 -19 15 -148 26 -288 21 -262 20 -298 -15 -363
-8 -14 -38 -74 -67 -135 -29 -60 -70 -129 -91 -152 -37 -41 -94 -69 -120 -60
-6 2 -29 -4 -49 -14 -62 -31 -80 -26 -162 50 -41 39 -92 79 -113 90 -22 11
-44 25 -50 33 -6 7 -27 62 -47 122 -36 107 -36 108 -19 139 10 16 23 30 28 31
6 1 24 -19 40 -44 37 -56 107 -118 143 -127 31 -7 188 30 242 57 99 51 246
212 265 293 13 51 -18 29 -69 -49 -27 -42 -86 -110 -132 -152 l-82 -78 -96
-19 c-90 -17 -99 -17 -130 -2 -20 9 -56 46 -88 89 -109 146 -140 201 -153 273
-4 22 -18 59 -32 82 -22 38 -24 50 -18 102 6 49 3 66 -11 91 -14 23 -16 35 -8
48 15 23 168 156 224 193 52 35 52 35 195 47 105 9 150 9 278 -5z m5221 -378
c-4 -8 -11 -15 -16 -15 -6 0 -5 6 2 15 7 8 14 15 16 15 2 0 1 -7 -2 -15z
m2003 -27 c7 -14 9 -28 6 -31 -9 -9 -33 4 -33 18 0 8 -9 17 -20 20 -27 8 -25
23 3 27 26 5 29 2 44 -34z m-2037 -27 c-6 -12 -15 -19 -20 -16 -5 3 -11 1 -15
-5 -3 -5 -12 -10 -18 -10 -7 0 3 14 21 31 37 33 50 33 32 0z m-74 -86 c-9 -19
-21 -35 -26 -35 -6 0 -10 -6 -10 -13 0 -7 -9 -20 -20 -30 -11 -9 -20 -13 -20
-8 0 5 7 14 15 21 8 7 15 17 15 22 0 12 54 88 59 83 2 -3 -4 -20 -13 -40z
m2148 -246 c29 -6 29 -7 5 -8 -14 -1 -34 6 -45 15 -10 8 -13 12 -5 8 8 -4 28
-11 45 -15z m396 11 c0 -5 -5 -10 -11 -10 -5 0 -7 5 -4 10 3 6 8 10 11 10 2 0
4 -4 4 -10z m-310 -170 c0 -5 -4 -10 -10 -10 -5 0 -10 5 -10 10 0 6 5 10 10
10 6 0 10 -4 10 -10z m186 -166 c14 -24 38 -47 54 -54 21 -9 30 -19 30 -36 0
-19 5 -24 24 -24 12 0 37 -12 53 -27 17 -16 46 -39 65 -52 18 -13 35 -33 36
-43 1 -10 3 -29 5 -42 1 -13 4 -24 7 -24 21 2 29 -6 34 -37 5 -27 2 -41 -15
-64 -13 -18 -19 -36 -15 -47 5 -14 2 -16 -25 -10 -17 3 -46 6 -65 6 -22 0 -41
8 -58 25 -14 14 -34 25 -46 25 -11 0 -20 5 -20 10 0 6 11 10 25 10 23 0 32 17
26 53 0 4 3 7 9 7 6 0 10 14 10 30 0 34 -8 36 -52 14 -29 -15 -32 -15 -50 4
-20 20 -20 20 11 49 43 41 40 53 -15 53 -38 0 -45 3 -42 18 1 10 -5 30 -15 46
-21 31 -19 71 3 71 8 0 15 7 15 15 0 9 -19 21 -47 30 -46 14 -48 17 -48 52 0
20 6 38 13 41 15 5 60 -43 93 -99z m-281 11 c58 -4 58 -4 41 -21 -22 -21 -72
-21 -96 1 -27 24 -26 39 3 30 12 -4 36 -8 52 -10z m-15 -199 c0 -23 -29 -27
-40 -6 -9 17 -7 20 15 20 15 0 25 -6 25 -14z m-7993 -88 c-3 -7 -5 -2 -5 12 0
14 2 19 5 13 2 -7 2 -19 0 -25z m8218 -38 c10 -11 16 -20 13 -20 -3 0 -13 9
-23 20 -10 11 -16 20 -13 20 3 0 13 -9 23 -20z m-8238 -42 c-3 -7 -5 -2 -5 12
0 14 2 19 5 13 2 -7 2 -19 0 -25z m63 8 c-5 -13 -7 -27 -4 -30 2 -3 1 -4 -3
-1 -12 9 -9 55 4 55 9 0 10 -7 3 -24z m-22 -101 c-3 -3 -9 2 -12 12 -6 14 -5
15 5 6 7 -7 10 -15 7 -18z m8021 -24 c5 0 11 -8 15 -16 4 -13 -4 -15 -50 -12
-36 2 -59 9 -64 18 -7 11 1 14 41 13 27 -1 53 -2 58 -3z m-7988 -44 c-10 -9
-11 -8 -5 6 3 10 9 15 12 12 3 -3 0 -11 -7 -18z m8569 11 c0 -4 -4 -8 -9 -8
-6 0 -12 4 -15 8 -3 5 1 9 9 9 8 0 15 -4 15 -9z m-140 -88 c0 -13 -12 -19 -26
-13 -21 8 -17 19 6 19 11 0 20 -3 20 -6z m525 -370 c3 -5 -1 -10 -10 -10 -9 0
-13 5 -10 10 3 6 8 10 10 10 2 0 7 -4 10 -10z m-8255 -19 c0 -11 6 -22 13 -25
6 -3 3 -5 -7 -3 -19 2 -32 47 -14 47 4 0 8 -9 8 -19z m8180 -6 c0 -14 -4 -25
-10 -25 -5 0 -10 11 -10 25 0 14 5 25 10 25 6 0 10 -11 10 -25z m-8127 -47 c4
-10 8 -10 15 0 7 11 10 9 14 -6 9 -32 -5 -42 -30 -22 -22 18 -30 40 -13 40 5
0 12 -6 14 -12z m8252 -58 c0 -8 -8 -16 -17 -18 -12 -2 -16 3 -15 18 2 24 32
24 32 0z m-5159 -79 c57 -5 116 -16 137 -26 45 -21 86 -80 102 -147 31 -127
46 -172 74 -222 23 -40 36 -84 55 -196 38 -220 39 -245 22 -353 -14 -86 -48
-213 -77 -285 -5 -13 -9 -35 -9 -50 0 -37 -37 -113 -94 -195 -56 -79 -145
-146 -226 -172 -61 -19 -57 -20 -230 49 -189 76 -195 87 -240 391 -12 83 -30
186 -40 231 -48 206 -49 315 -3 504 14 58 28 150 32 205 10 121 24 157 58 149
17 -5 37 4 76 33 120 91 161 100 363 84z m645 -29 c76 -39 104 -85 128 -203
10 -53 34 -129 51 -169 29 -67 32 -80 26 -137 -13 -121 -71 -269 -156 -398
-15 -22 -53 -89 -85 -150 -32 -60 -68 -126 -79 -145 -12 -19 -30 -52 -41 -74
-29 -57 -162 -187 -225 -221 -55 -29 -55 -29 -38 -4 78 108 141 251 204 464
24 79 30 279 11 367 -9 40 -24 107 -32 148 -9 41 -34 114 -56 163 -21 48 -39
94 -39 104 0 34 101 222 136 252 48 42 118 43 195 3z m3685 8 c0 -15 -7 -19
-26 -18 -56 3 -62 38 -7 38 26 0 33 -4 33 -20z m-7074 -43 c-9 -18 -21 9 -15
33 l7 25 6 -25 c4 -14 5 -29 2 -33z m115 11 c-3 -8 -6 -5 -6 6 -1 11 2 17 5
13 3 -3 4 -12 1 -19z m6851 -10 c2 -4 12 -8 23 -8 16 0 18 -5 13 -26 -4 -17
-2 -29 7 -35 11 -7 11 -9 -3 -9 -12 0 -66 38 -107 75 -1 2 0 8 4 14 7 12 58 3
63 -11z m112 8 c0 -2 -7 -9 -15 -16 -12 -10 -15 -10 -15 4 0 9 7 16 15 16 8 0
15 -2 15 -4z m860 -11 c0 -8 -4 -15 -10 -15 -5 0 -10 7 -10 15 0 8 5 15 10 15
6 0 10 -7 10 -15z m-5775 -111 c22 -9 45 -57 45 -97 0 -18 -14 -101 -32 -183
-39 -182 -42 -308 -9 -484 12 -63 30 -182 41 -265 22 -173 44 -281 61 -301 15
-18 -1 -18 -26 0 -11 7 -31 16 -45 19 -73 18 -158 145 -198 298 -11 41 -29 99
-40 129 -61 167 -67 378 -16 580 21 85 25 116 19 172 -6 65 -5 69 21 93 40 37
131 57 179 39z m-1943 -36 c13 -16 21 -19 24 -10 8 18 32 14 39 -7 3 -11 23
-23 51 -31 24 -7 47 -16 49 -21 8 -11 -32 -21 -55 -14 -17 5 -20 2 -20 -26 0
-18 3 -29 6 -26 4 3 15 2 26 -4 16 -9 17 -13 7 -25 -10 -13 -10 -17 2 -25 10
-7 3 -8 -21 -4 -36 7 -65 25 -40 25 10 0 9 4 -3 18 -10 10 -17 27 -17 37 0 18
-1 18 -12 2 -20 -26 -82 -18 -86 11 -2 12 1 22 7 22 6 0 11 7 11 15 0 8 -7 15
-15 15 -15 0 -20 26 -9 54 9 23 32 20 56 -6z m7119 -81 c-8 -8 -11 -7 -11 4 0
20 13 34 18 19 3 -7 -1 -17 -7 -23z m-6615 -10 c8 3 14 0 14 -7 0 -6 4 -8 10
-5 9 6 59 -42 60 -57 0 -4 -16 4 -36 17 -49 33 -122 30 -182 -9 -7 -4 -16 -6
-19 -3 -2 3 4 10 15 16 13 7 18 18 16 29 -5 15 0 17 36 14 24 -3 47 1 53 7 7
7 13 8 15 2 2 -5 10 -7 18 -4z m59 -137 c27 -50 37 -59 114 -97 92 -46 108
-59 167 -148 108 -162 136 -287 127 -585 -6 -233 -19 -285 -102 -400 -25 -35
-116 -130 -125 -130 -2 0 5 24 16 52 17 46 19 71 16 193 -4 147 -7 161 -81
325 -40 90 -77 183 -77 195 0 15 -66 149 -94 191 -12 17 -56 59 -99 93 -43 34
-82 74 -88 89 -19 49 2 217 31 246 20 20 75 35 120 33 43 -2 45 -4 75 -57z
m-360 40 c4 -6 -6 -10 -22 -9 -25 0 -26 1 -8 9 11 5 21 9 22 9 1 1 5 -3 8 -9z
m415 -22 c0 -6 7 -20 17 -30 9 -10 12 -18 7 -18 -5 0 -18 14 -27 30 -10 17
-13 30 -8 30 6 0 11 -5 11 -12z m-455 -37 c39 -4 85 -15 103 -25 30 -16 32
-20 32 -70 0 -30 3 -63 6 -73 4 -10 -10 -2 -32 20 -57 58 -121 99 -163 104
-51 7 -115 -13 -155 -48 -26 -22 -41 -28 -59 -24 -21 6 -31 -1 -62 -38 -32
-38 -41 -44 -59 -37 -12 5 -38 11 -58 15 -44 7 -47 21 -15 58 15 18 32 27 53
27 31 0 102 40 117 66 4 8 20 14 35 15 15 0 43 7 62 15 21 8 53 12 80 8 25 -2
77 -8 115 -13z m-365 -31 c-8 -5 -17 -7 -19 -4 -3 3 1 9 9 14 8 5 17 7 19 4 3
-3 -1 -9 -9 -14z m1296 -27 c-10 -10 -19 5 -10 18 6 11 8 11 12 0 2 -7 1 -15
-2 -18z m-919 -59 c25 -21 84 -75 131 -121 48 -46 101 -93 118 -105 43 -29
109 -129 135 -203 28 -80 105 -279 130 -335 31 -71 47 -167 44 -265 -3 -104
-18 -169 -45 -193 -40 -36 -51 -43 -60 -37 -6 3 -10 -1 -10 -9 0 -21 -101 -66
-147 -66 -99 0 -234 61 -317 144 -41 41 -125 206 -166 326 -12 36 -28 79 -35
95 -7 17 -28 71 -46 120 -17 50 -42 117 -55 150 -12 33 -30 97 -40 141 -23
111 -9 238 34 299 23 32 34 39 56 37 15 -2 34 2 41 8 33 27 94 49 139 50 42 0
55 -5 93 -36z m-527 -14 c0 -5 -7 -10 -15 -10 -8 0 -15 5 -15 10 0 6 7 10 15
10 8 0 15 -4 15 -10z m-12 -46 c12 -8 50 -20 84 -25 34 -6 64 -11 65 -13 1 -1
-2 -41 -7 -89 -7 -60 -7 -109 1 -159 10 -67 101 -364 133 -433 8 -16 26 -66
41 -110 68 -198 162 -350 250 -405 20 -12 33 -26 29 -31 -10 -17 -127 -8 -187
14 -64 24 -156 87 -178 122 -8 13 -42 58 -77 101 -35 44 -69 86 -75 94 -61 76
-100 201 -122 395 -9 72 -25 173 -36 225 -40 182 -36 250 19 313 19 21 31 21
60 1z m-344 -337 c7 -5 3 -7 -8 -5 -12 2 -20 13 -22 28 -4 23 -3 24 8 5 6 -11
16 -24 22 -28z m1740 -80 c-2 -198 -11 -221 -18 -48 -3 84 -2 111 7 108 8 -2
12 -25 11 -60z m-17 -219 c-3 -7 -5 -2 -5 12 0 14 2 19 5 13 2 -7 2 -19 0 -25z
m-50 -378 c3 -23 -15 -36 -29 -22 -7 7 -6 17 2 32 13 24 22 20 27 -10z m-110
-125 c-10 -7 -14 -15 -10 -17 4 -3 2 -3 -5 -2 -7 2 -18 -5 -24 -16 -7 -11 -19
-20 -26 -20 -7 0 -10 -4 -7 -10 3 -5 3 -15 -1 -21 -5 -8 -9 -8 -14 1 -4 7 -10
0 -13 -19 -7 -33 -21 -41 -31 -16 -8 23 128 155 143 139 3 -3 -2 -12 -12 -19z
m113 -66 c0 -5 -4 -9 -10 -9 -5 0 -10 7 -10 16 0 8 5 12 10 9 6 -3 10 -10 10
-16z m-13 -41 c-3 -8 -6 -5 -6 6 -1 11 2 17 5 13 3 -3 4 -12 1 -19z m-671 -90
c4 -7 3 -8 -4 -4 -8 5 -10 1 -6 -9 4 -10 13 -14 22 -10 9 3 13 3 10 -1 -4 -3
2 -15 12 -27 11 -11 17 -24 14 -29 -3 -4 0 -8 6 -8 7 0 10 -6 7 -14 -3 -8 5
-26 19 -41 13 -14 24 -34 24 -45 0 -10 9 -22 20 -25 11 -3 23 -17 26 -31 5
-21 9 -23 22 -12 13 11 14 11 8 0 -5 -9 -1 -19 12 -27 13 -10 18 -22 15 -39
-4 -17 2 -31 20 -46 14 -12 28 -37 32 -56 3 -19 19 -46 35 -61 30 -29 67 -103
52 -103 -8 0 -82 103 -82 114 0 8 -131 198 -162 236 -45 54 -46 57 -66 89 -10
17 -36 50 -57 73 -21 24 -47 53 -58 66 l-20 22 46 0 c25 0 49 -5 53 -12z m681
-8 c2 -25 -15 -36 -30 -20 -9 9 -7 15 7 26 11 8 20 14 21 14 0 0 1 -9 2 -20z
m-3 -167 c6 -84 -9 -99 -19 -19 -6 46 0 104 10 94 2 -2 6 -36 9 -75z m6 -108
c0 -14 -4 -25 -10 -25 -5 0 -10 7 -10 15 0 8 -5 15 -11 15 -5 0 -7 5 -4 10 12
20 35 10 35 -15z m-5 -65 c3 -5 1 -10 -4 -10 -6 0 -11 5 -11 10 0 6 2 10 4 10
3 0 8 -4 11 -10z m5 -65 c0 -8 -4 -15 -10 -15 -5 0 -10 7 -10 15 0 8 5 15 10
15 6 0 10 -7 10 -15z m14 -57 c3 -17 2 -36 -4 -42 -10 -10 -11 -8 -15 47 -3
37 11 34 19 -5z m-3145 -122 c-3 -3 -11 5 -18 17 -13 21 -12 21 5 5 10 -10 16
-20 13 -22z m2888 -58 c-3 -7 -5 -2 -5 12 0 14 2 19 5 13 2 -7 2 -19 0 -25z"/>
<path d="M6325 10030 c-11 -17 5 -30 36 -30 22 0 29 5 29 20 0 15 -7 20 -29
20 -17 0 -33 -4 -36 -10z"/>
<path d="M6430 10020 c0 -11 5 -20 10 -20 6 0 10 9 10 20 0 11 -4 20 -10 20
-5 0 -10 -9 -10 -20z"/>
<path d="M6338 9933 c-19 -5 -26 -53 -8 -53 6 0 10 6 10 14 0 8 7 16 15 20 8
3 15 10 15 16 0 10 -3 11 -32 3z"/>
<path d="M8400 8550 c0 -5 5 -10 10 -10 6 0 10 5 10 10 0 6 -4 10 -10 10 -5 0
-10 -4 -10 -10z"/>
<path d="M6250 7775 c0 -3 4 -13 9 -23 5 -9 12 -25 15 -34 8 -27 23 -21 37 15
7 17 14 35 17 40 2 4 -15 7 -37 7 -23 0 -41 -2 -41 -5z"/>
<path d="M6307 7673 c-4 -3 -7 -15 -7 -25 0 -10 -6 -18 -13 -18 -25 0 -36 -21
-25 -46 15 -32 38 -31 38 1 0 29 -3 27 73 30 63 2 72 7 63 30 -9 25 -36 29
-51 9 -14 -18 -15 -18 -30 4 -16 22 -35 28 -48 15z"/>
<path d="M6330 7530 c0 -5 4 -10 9 -10 5 0 11 -9 14 -20 3 -11 10 -20 16 -20
17 0 13 47 -5 54 -23 9 -34 7 -34 -4z"/>
<path d="M6290 7470 c0 -5 5 -10 10 -10 6 0 10 5 10 10 0 6 -4 10 -10 10 -5 0
-10 -4 -10 -10z"/>
<path d="M6430 7447 c0 -22 16 -56 22 -47 26 41 26 48 2 59 -21 9 -24 8 -24
-12z"/>
<path d="M6367 7454 c-14 -15 -6 -34 14 -34 14 0 19 5 17 17 -3 18 -20 27 -31
17z"/>
<path d="M8930 7420 c0 -5 5 -10 11 -10 5 0 7 5 4 10 -3 6 -8 10 -11 10 -2 0
-4 -4 -4 -10z"/>
<path d="M9110 6545 c0 -8 5 -15 10 -15 6 0 10 7 10 15 0 8 -4 15 -10 15 -5 0
-10 -7 -10 -15z"/>
<path d="M9197 6513 c-11 -11 -8 -48 5 -61 10 -10 8 -14 -9 -18 -22 -6 -38
-40 -22 -50 16 -9 49 7 50 24 0 11 3 12 6 5 8 -22 23 -14 23 13 0 19 -4 25
-15 20 -13 -5 -13 -2 1 19 13 20 14 28 4 40 -13 16 -32 19 -43 8z"/>
<path d="M9382 6490 c-10 -17 -10 -20 2 -20 19 0 31 19 19 31 -5 5 -14 0 -21
-11z"/>
<path d="M9340 6415 c-16 -19 -4 -35 26 -35 26 0 32 18 12 38 -16 16 -23 15
-38 -3z"/>
<path d="M9262 6298 c-18 -18 -15 -28 8 -28 13 0 20 7 20 20 0 23 -10 26 -28
8z"/>
<path d="M9140 6111 c0 -11 -4 -23 -10 -26 -5 -3 -10 -15 -10 -26 0 -14 -7
-19 -25 -19 -14 0 -25 -3 -25 -6 0 -9 28 -34 37 -34 5 0 15 -9 23 -20 11 -15
17 -17 29 -7 9 6 13 8 9 3 -4 -5 4 -17 18 -28 23 -19 26 -19 49 -4 14 9 25 24
25 34 0 10 9 24 20 32 11 8 20 18 20 21 0 4 -24 15 -52 25 -52 16 -88 43 -88
64 0 5 -4 10 -10 10 -5 0 -10 -9 -10 -19z"/>
<path d="M9035 6041 c-3 -5 -2 -12 3 -15 5 -3 9 1 9 9 0 17 -3 19 -12 6z"/>
<path d="M9097 5849 c7 -7 15 -10 18 -7 3 3 -2 9 -12 12 -14 6 -15 5 -6 -5z"/>
<path d="M9390 5771 c0 -21 31 -33 70 -26 50 8 51 21 3 29 -52 8 -73 7 -73 -3z"/>
<path d="M9560 5770 c0 -5 4 -10 9 -10 5 0 13 -9 16 -20 7 -24 21 -26 29 -5 3
8 -2 21 -10 30 -17 17 -44 20 -44 5z"/>
<path d="M9205 5680 c3 -5 8 -10 11 -10 2 0 4 5 4 10 0 6 -5 10 -11 10 -5 0
-7 -4 -4 -10z"/>
<path d="M9401 5576 c-16 -20 10 -39 43 -30 31 7 33 19 7 34 -26 13 -36 13
-50 -4z"/>
<path d="M9390 5382 c0 -10 -5 -23 -11 -29 -6 -6 -8 -16 -5 -22 16 -26 61 0
71 42 7 25 5 27 -24 27 -23 0 -31 -5 -31 -18z"/>
<path d="M9266 5301 c-4 -7 -5 -15 -2 -18 9 -9 19 4 14 18 -4 11 -6 11 -12 0z"/>
<path d="M9440 5235 c0 -11 7 -15 23 -13 12 2 22 8 22 13 0 6 -10 11 -22 13
-16 2 -23 -2 -23 -13z"/>
<path d="M9362 5122 c-7 -5 -10 -16 -6 -25 9 -25 24 -20 24 8 0 28 0 28 -18
17z"/>
<path d="M9450 5060 c-8 -5 -12 -10 -8 -10 4 0 3 -11 -2 -25 -6 -16 -6 -25 0
-25 6 0 10 5 10 10 0 6 5 10 11 10 16 0 36 24 31 38 -4 14 -21 15 -42 2z"/>
<path d="M9516 5052 c-2 -4 -1 -14 4 -22 7 -11 11 -11 24 2 14 15 14 17 0 22
-20 8 -22 8 -28 -2z"/>
<path d="M9431 4974 c0 -11 3 -14 6 -6 3 7 2 16 -1 19 -3 4 -6 -2 -5 -13z"/>
<path d="M7960 6029 c0 -5 5 -7 10 -4 6 3 10 8 10 11 0 2 -4 4 -10 4 -5 0 -10
-5 -10 -11z"/>
<path d="M7970 5966 c0 -2 7 -9 15 -16 9 -7 15 -8 15 -2 0 5 -7 12 -15 16 -8
3 -15 4 -15 2z"/>
<path d="M8860 5710 l-25 -8 25 -1 c14 0 32 4 40 9 13 9 13 10 0 9 -8 -1 -26
-5 -40 -9z"/>
<path d="M8850 5655 c-7 -13 -21 -27 -32 -31 -22 -7 -24 -24 -3 -24 8 0 15 -4
15 -10 0 -5 5 -10 10 -10 6 0 10 7 10 15 0 9 7 18 15 21 8 4 15 12 15 20 0 8
4 14 10 14 5 0 7 7 4 15 -9 23 -29 18 -44 -10z"/>
<path d="M8765 5660 c3 -5 14 -10 23 -10 15 0 15 2 2 10 -20 13 -33 13 -25 0z"/>
<path d="M8910 5649 c0 -5 5 -7 10 -4 6 3 10 8 10 11 0 2 -4 4 -10 4 -5 0 -10
-5 -10 -11z"/>
<path d="M8900 5620 c0 -5 5 -10 11 -10 5 0 7 5 4 10 -3 6 -8 10 -11 10 -2 0
-4 -4 -4 -10z"/>
<path d="M3208 5203 c6 -2 18 -2 25 0 6 3 1 5 -13 5 -14 0 -19 -2 -12 -5z"/>
<path d="M10104 3489 c-9 -15 7 -29 39 -31 19 -2 27 -8 28 -23 0 -11 3 -14 6
-7 2 6 13 12 24 12 11 0 19 7 19 16 0 10 -6 14 -15 10 -9 -3 -19 3 -25 14 -12
22 -64 28 -76 9z"/>
<path d="M6100 1705 c0 -8 2 -15 4 -15 2 0 6 7 10 15 3 8 1 15 -4 15 -6 0 -10
-7 -10 -15z"/>
<path d="M2850 9670 c-8 -5 -31 -10 -51 -10 -21 0 -44 -8 -57 -20 -12 -11 -30
-20 -42 -20 -11 0 -20 -4 -20 -10 0 -6 -27 -10 -61 -10 -50 0 -60 -3 -55 -15
4 -10 -1 -15 -14 -15 -10 0 -31 -11 -45 -25 -14 -15 -25 -20 -25 -13 0 9 -3 9
-10 -2 -6 -11 -24 -14 -60 -13 -37 1 -50 -2 -50 -13 0 -12 -18 -19 -41 -16 -4
1 -5 -8 -2 -19 6 -21 -33 -73 -48 -64 -4 3 -10 -4 -14 -15 -3 -11 -19 -33 -36
-49 -19 -19 -29 -40 -29 -59 0 -37 10 -46 26 -24 8 9 14 12 14 5 0 -6 -5 -15
-11 -18 -6 -4 -9 -29 -8 -56 2 -27 0 -52 -4 -55 -4 -4 -7 9 -7 28 0 33 -2 36
-27 34 -37 -3 -93 -26 -93 -37 0 -5 -9 -9 -20 -9 -11 0 -20 -6 -20 -14 0 -15
-41 -45 -70 -51 -10 -2 -50 -35 -89 -74 -38 -39 -76 -71 -85 -71 -20 0 -57
-40 -49 -53 4 -6 -2 -8 -15 -5 -28 8 -35 -4 -22 -36 9 -25 40 -37 40 -16 0 6
7 10 15 10 39 0 3 -59 -46 -75 -19 -7 -36 -20 -37 -30 -3 -12 0 -15 9 -10 8 6
10 4 4 -5 -4 -7 -2 -16 5 -20 9 -6 7 -10 -9 -15 -17 -5 -21 -14 -21 -46 0 -21
5 -39 10 -39 6 0 11 5 11 10 3 22 5 26 20 48 37 52 30 -34 -11 -133 -5 -11
-11 -31 -14 -45 -4 -22 -2 -21 25 13 17 20 36 37 43 37 14 0 70 57 111 113 15
20 34 37 41 37 8 0 14 7 14 15 0 9 8 19 18 23 27 10 79 51 134 105 26 26 51
47 54 47 7 0 83 53 112 78 13 11 22 31 22 48 0 16 4 24 8 19 11 -16 50 -16 56
1 3 8 14 14 25 14 11 0 25 9 31 20 6 11 14 19 18 18 11 -3 104 52 130 78 13
12 38 30 57 39 22 10 35 23 35 35 0 11 6 20 13 20 6 0 30 17 53 38 35 33 45
38 77 34 34 -4 38 -2 48 27 13 36 44 41 89 14 27 -15 30 -15 57 2 15 11 33 20
38 21 6 0 16 2 23 2 7 1 10 7 7 12 -4 6 -11 7 -17 4 -6 -4 -9 -1 -6 7 7 21 38
24 38 4 0 -14 6 -16 27 -10 32 8 50 30 48 59 -2 26 16 34 74 35 34 1 42 -2 37
-14 -3 -8 -1 -15 4 -15 6 0 10 14 10 30 0 17 -4 30 -10 30 -15 0 -12 36 4 50
8 6 34 11 58 10 70 -3 71 -3 66 29 -3 23 -1 28 11 24 11 -3 10 0 -2 7 -22 14
-190 7 -250 -10 -32 -9 -43 -8 -63 5 -20 13 -29 14 -39 5 -16 -13 -35 -5 -35
15 0 7 -7 16 -16 19 -24 9 -54 7 -54 -4 0 -7 -6 -7 -19 0 -24 12 -22 12 -41 0z
m85 -260 c3 -6 -1 -7 -9 -4 -18 7 -21 14 -7 14 6 0 13 -4 16 -10z m-525 -14
c0 -2 -7 -9 -15 -16 -13 -11 -14 -10 -9 4 5 14 24 23 24 12z m-253 -308 c-6
-4 -19 -2 -30 3 -18 10 -18 11 -1 30 18 20 18 20 30 -3 9 -17 9 -25 1 -30z
m-72 -4 c13 -5 14 -9 3 -15 -11 -7 -10 -11 2 -19 13 -8 13 -11 1 -22 -11 -10
-14 -10 -18 0 -3 6 -11 12 -19 12 -8 0 -14 10 -14 25 0 25 13 31 45 19z m-47
-116 c-3 -7 -13 -15 -23 -16 -15 -4 -16 -2 -4 12 17 19 32 21 27 4z"/>
<path d="M4237 9673 c-12 -12 -7 -22 8 -17 8 4 15 10 15 15 0 11 -14 12 -23 2z"/>
<path d="M3000 9660 c0 -5 5 -10 10 -10 6 0 10 5 10 10 0 6 -4 10 -10 10 -5 0
-10 -4 -10 -10z"/>
<path d="M4130 9619 c-92 -48 -209 -122 -210 -131 0 -4 37 16 83 44 45 28 110
65 144 81 35 16 65 33 69 38 9 15 -8 9 -86 -32z"/>
<path d="M3503 9643 c-41 -8 -25 -63 17 -63 16 0 30 -4 32 -9 2 -5 10 -11 18
-13 8 -2 22 -10 30 -18 8 -9 24 -16 35 -17 11 -1 25 -2 30 -4 9 -2 48 6 84 17
21 7 -14 41 -55 54 -19 7 -34 16 -34 21 0 5 -12 9 -26 9 -14 0 -33 4 -42 9
-25 12 -64 18 -89 14z"/>
<path d="M2418 9563 c7 -3 16 -2 19 1 4 3 -2 6 -13 5 -11 0 -14 -3 -6 -6z"/>
<path d="M3882 9500 c0 -14 2 -19 5 -12 2 6 2 18 0 25 -3 6 -5 1 -5 -13z"/>
<path d="M5400 9479 c0 -5 5 -7 10 -4 6 3 10 8 10 11 0 2 -4 4 -10 4 -5 0 -10
-5 -10 -11z"/>
<path d="M5520 9430 c0 -5 5 -10 10 -10 6 0 10 5 10 10 0 6 -4 10 -10 10 -5 0
-10 -4 -10 -10z"/>
<path d="M5560 9378 c6 -18 10 -35 10 -37 0 -2 7 2 15 9 16 14 21 50 6 50 -5
0 -16 3 -25 6 -13 5 -14 1 -6 -28z"/>
<path d="M5632 9340 c2 -27 8 -36 26 -38 30 -5 28 18 -4 49 l-26 24 4 -35z"/>
<path d="M6696 9223 c9 -36 7 -35 32 -17 32 22 28 44 -8 44 -28 0 -30 -2 -24
-27z"/>
<path d="M6525 9211 c-8 -14 2 -31 20 -31 8 0 11 -7 8 -20 -3 -12 0 -20 6 -20
20 0 9 74 -11 78 -9 2 -19 -2 -23 -7z"/>
<path d="M5704 9186 c-4 -10 -18 -16 -39 -16 -45 0 -49 -10 -19 -47 l24 -31
47 18 c64 24 71 67 15 84 -15 5 -24 3 -28 -8z"/>
<path d="M6035 9160 c-3 -5 3 -10 14 -10 12 0 21 5 21 10 0 6 -6 10 -14 10 -8
0 -18 -4 -21 -10z"/>
<path d="M4865 8911 c-3 -5 -1 -12 5 -16 5 -3 10 1 10 9 0 18 -6 21 -15 7z"/>
<path d="M3760 8850 c-8 -5 -27 -10 -42 -10 -31 0 -78 -19 -78 -32 0 -4 -9 -8
-20 -8 -11 0 -20 -4 -20 -10 0 -5 -8 -10 -18 -10 -10 0 -25 -9 -35 -20 -19
-23 -39 -27 -31 -6 7 18 -95 10 -115 -10 -13 -12 -12 -16 2 -32 16 -18 16 -20
1 -32 -12 -11 -20 -11 -34 -2 -20 12 -50 7 -50 -9 0 -5 12 -9 27 -9 l27 0 -39
-40 c-22 -22 -54 -47 -71 -54 -17 -7 -50 -33 -75 -56 -24 -24 -51 -44 -59 -45
-20 -2 -100 -53 -100 -64 0 -5 -20 -31 -44 -58 -38 -42 -116 -182 -116 -207 0
-5 -13 -21 -30 -36 -16 -15 -30 -25 -30 -22 0 4 -7 -6 -16 -23 -8 -16 -13 -40
-11 -53 2 -13 0 -22 -7 -21 -25 3 -35 -2 -41 -21 -4 -11 -18 -34 -32 -50 -13
-17 -21 -30 -16 -30 6 0 10 -7 10 -15 0 -11 -4 -12 -11 -5 -11 11 -46 -15 -46
-36 0 -17 -86 -114 -94 -107 -3 4 -6 -2 -6 -12 0 -18 -38 -88 -52 -93 -4 -2
-8 -14 -8 -26 0 -12 -15 -40 -33 -62 -19 -21 -40 -51 -48 -66 -8 -14 -27 -50
-42 -80 -16 -29 -39 -66 -51 -83 -12 -16 -28 -45 -35 -62 -8 -18 -17 -33 -22
-33 -5 0 -6 -7 -2 -15 3 -9 -1 -23 -9 -33 -9 -9 -18 -30 -22 -45 -5 -22 -11
-27 -26 -22 -33 10 -42 -4 -23 -36 16 -27 16 -31 0 -58 -9 -16 -17 -40 -17
-53 -1 -12 -7 -34 -15 -48 -8 -14 -14 -35 -15 -48 0 -30 -17 -35 -65 -18 -34
12 -40 12 -43 0 -4 -17 41 -64 62 -64 19 0 14 -29 -7 -45 -19 -14 -22 -32 -7
-37 5 -1 12 -18 16 -35 6 -29 4 -33 -15 -33 -12 0 -21 -6 -21 -15 0 -7 -8 -19
-17 -25 -16 -10 -15 -11 5 -7 30 7 36 -20 30 -143 -3 -54 -1 -105 3 -112 5 -8
3 -45 -2 -82 -6 -38 -7 -72 -2 -77 18 -18 32 10 36 70 3 52 8 67 26 82 15 12
25 34 29 61 3 24 11 48 17 53 13 11 29 84 40 175 9 68 52 280 68 332 6 21 15
38 19 38 5 0 8 6 8 14 0 8 4 17 9 20 5 3 3 -15 -5 -42 -8 -26 -17 -60 -20 -77
-3 -16 -12 -56 -20 -88 -8 -33 -13 -64 -12 -69 2 -6 14 34 27 88 13 54 27 108
31 119 4 11 33 99 64 195 31 96 73 211 92 255 86 197 193 392 208 378 3 -4 6
-2 6 3 0 6 9 20 20 32 12 12 18 22 15 22 -3 0 6 12 20 28 14 15 31 39 37 54 7
15 16 24 20 22 4 -3 8 1 8 9 0 35 251 305 412 443 78 68 72 75 -9 12 -38 -28
-61 -43 -53 -33 16 21 75 88 102 116 9 9 19 27 23 38 8 25 95 110 113 111 17
0 15 -14 -8 -43 -11 -14 -20 -31 -20 -39 0 -8 -4 -18 -9 -23 -21 -23 -121
-208 -136 -252 -67 -194 -81 -385 -46 -590 21 -118 38 -188 78 -316 26 -82 23
-46 -3 43 -34 117 -39 219 -20 377 34 284 78 426 188 600 40 64 151 173 175
173 7 0 13 5 13 10 0 6 7 10 16 10 8 0 29 14 47 30 46 44 194 114 239 113 21
0 35 3 32 8 -13 21 -117 6 -144 -21 -16 -16 -80 -38 -85 -30 -3 6 3 10 14 10
12 0 21 4 21 8 0 12 56 42 65 34 5 -4 5 -1 1 6 -5 8 0 21 14 34 l21 20 -20 15
c-13 9 -21 25 -21 44 0 30 -13 36 -40 19z m-263 -166 c-3 -3 -12 -4 -19 -1 -8
3 -5 6 6 6 11 1 17 -2 13 -5z m101 -96 c-2 -6 -15 -18 -29 -26 -23 -13 -23
-13 -5 2 15 12 16 16 5 16 -12 0 -12 2 1 10 20 13 32 12 28 -2z m-99 -33 c16
-8 32 -11 37 -7 4 4 -24 -28 -63 -71 -108 -117 -186 -269 -223 -437 -24 -110
-50 -284 -51 -346 0 -45 -1 -47 -12 -24 -18 41 -15 301 6 400 21 100 53 203
77 245 74 131 119 196 160 232 30 27 33 27 69 8z m-374 -235 c-3 -5 -14 -10
-23 -9 -14 0 -13 2 3 9 27 11 27 11 20 0z m-95 -84 c0 -2 -8 -10 -17 -17 -16
-13 -17 -12 -4 4 13 16 21 21 21 13z m-343 -402 c-3 -3 -12 -4 -19 -1 -8 3 -5
6 6 6 11 1 17 -2 13 -5z m-137 -214 c0 -5 -7 -10 -16 -10 -8 0 -12 5 -9 10 3
6 10 10 16 10 5 0 9 -4 9 -10z m-173 -392 c-3 -7 -5 -2 -5 12 0 14 2 19 5 13
2 -7 2 -19 0 -25z m-46 -179 c-9 -22 -10 -22 -10 -3 -1 11 2 24 6 27 12 12 14
0 4 -24z"/>
<path d="M5592 8838 c4 -28 24 -34 31 -9 3 12 -1 22 -10 25 -23 9 -25 8 -21
-16z"/>
<path d="M1635 8799 c-4 -6 -5 -12 -2 -15 2 -3 7 2 10 11 7 17 1 20 -8 4z"/>
<path d="M5640 8725 c0 -8 9 -15 20 -15 11 0 20 -5 20 -11 0 -6 -9 -9 -20 -6
-16 4 -20 0 -20 -18 0 -40 11 -55 40 -55 16 0 32 -4 35 -10 9 -14 34 -12 50 4
12 12 10 16 -15 26 -21 9 -30 19 -30 36 0 14 -6 24 -14 24 -8 0 -18 9 -21 20
-7 23 -45 27 -45 5z"/>
<path d="M4376 8685 c4 -8 12 -15 19 -15 7 0 22 -3 32 -6 14 -4 13 -1 -6 15
-27 25 -53 28 -45 6z"/>
<path d="M1511 8604 c0 -11 3 -14 6 -6 3 7 2 16 -1 19 -3 4 -6 -2 -5 -13z"/>
<path d="M1628 8603 c6 -2 12 -11 12 -19 0 -8 5 -14 10 -14 6 0 10 9 10 20 0
14 -6 20 -22 19 -13 0 -17 -3 -10 -6z"/>
<path d="M1571 8574 c0 -11 3 -14 6 -6 3 7 2 16 -1 19 -3 4 -6 -2 -5 -13z"/>
<path d="M4480 8510 c0 -5 7 -10 16 -10 8 0 12 5 9 10 -3 6 -10 10 -16 10 -5
0 -9 -4 -9 -10z"/>
<path d="M1510 8463 c0 -13 -5 -23 -11 -23 -5 0 -8 -4 -5 -9 3 -5 15 -7 26 -4
14 4 20 0 20 -11 0 -14 3 -14 20 -4 11 7 20 23 20 35 0 28 -8 29 -26 6 -12
-17 -13 -16 -14 7 -1 14 -4 19 -7 11 -5 -11 -7 -11 -14 0 -6 10 -9 8 -9 -8z"/>
<path d="M1405 8350 c3 -5 11 -10 16 -10 6 0 7 5 4 10 -3 6 -11 10 -16 10 -6
0 -7 -4 -4 -10z"/>
<path d="M2313 7973 c-13 -8 -23 -23 -23 -33 0 -9 -9 -25 -20 -35 -11 -10 -20
-22 -20 -27 0 -5 14 6 30 24 17 18 30 37 30 42 0 6 5 5 11 -1 9 -9 8 -16 -4
-28 -9 -8 -15 -21 -13 -28 1 -7 1 -9 -1 -4 -10 17 -23 -7 -23 -44 0 -37 2 -39
30 -39 28 0 30 3 30 36 0 19 7 43 16 52 15 14 15 17 -1 28 -9 7 -14 17 -10 23
3 6 1 11 -6 11 -6 0 -9 8 -6 20 3 11 4 20 4 19 -1 0 -12 -7 -24 -16z"/>
<path d="M1490 7949 c0 -5 5 -7 10 -4 6 3 10 8 10 11 0 2 -4 4 -10 4 -5 0 -10
-5 -10 -11z"/>
<path d="M1464 7864 c-4 -10 -20 -50 -36 -88 -15 -38 -27 -71 -25 -73 2 -2 20
36 41 83 20 48 34 89 31 92 -2 3 -8 -4 -11 -14z"/>
<path d="M2212 7818 c-6 -13 -12 -35 -15 -50 -4 -24 -1 -28 19 -28 17 0 24 6
24 19 0 11 3 27 7 37 5 13 3 16 -9 11 -12 -4 -14 -1 -11 14 7 26 -1 24 -15 -3z"/>
<path d="M2259 7702 l-33 -30 32 -7 c39 -8 63 8 58 38 -4 32 -21 31 -57 -1z"/>
<path d="M1386 7675 c-3 -8 -1 -15 3 -15 5 0 11 7 15 15 3 8 1 15 -3 15 -5 0
-11 -7 -15 -15z"/>
<path d="M1369 7623 c-33 -85 -85 -253 -79 -253 4 0 20 39 35 88 15 48 35 111
46 140 19 53 17 75 -2 25z"/>
<path d="M2325 7480 c-4 -6 10 -10 34 -10 23 0 41 5 41 10 0 6 -15 10 -34 10
-19 0 -38 -4 -41 -10z"/>
<path d="M1271 7329 c-6 -18 -11 -37 -10 -43 0 -6 7 7 15 28 8 22 12 41 10 43
-2 2 -9 -10 -15 -28z"/>
<path d="M3192 7300 c0 -14 2 -19 5 -12 2 6 2 18 0 25 -3 6 -5 1 -5 -13z"/>
<path d="M2060 7247 c0 -2 9 -14 20 -27 17 -20 22 -21 49 -9 l29 13 -25 13
c-23 12 -73 18 -73 10z"/>
<path d="M1920 7045 c0 -11 7 -15 23 -13 12 2 22 8 22 13 0 6 -10 11 -22 13
-16 2 -23 -2 -23 -13z"/>
<path d="M1186 7004 c-4 -14 -5 -28 -3 -31 3 -2 8 8 11 23 4 14 5 28 3 31 -3
2 -8 -8 -11 -23z"/>
<path d="M1171 6934 c0 -11 3 -14 6 -6 3 7 2 16 -1 19 -3 4 -6 -2 -5 -13z"/>
<path d="M2026 6912 c-2 -4 -1 -14 5 -22 7 -12 9 -10 9 8 0 23 -5 28 -14 14z"/>
<path d="M1156 6879 c-8 -42 0 -50 9 -9 4 17 5 34 2 36 -2 3 -7 -10 -11 -27z"/>
<path d="M1883 6860 c-1 -11 4 -20 13 -20 8 0 14 9 14 20 0 11 -6 20 -13 20
-7 0 -13 -9 -14 -20z"/>
<path d="M1142 6800 c0 -14 2 -19 5 -12 2 6 2 18 0 25 -3 6 -5 1 -5 -13z"/>
<path d="M1934 6697 c-25 -26 -28 -35 -18 -45 7 -7 16 -12 20 -12 4 0 14 -9
23 -19 27 -31 41 -12 38 49 -3 67 -20 75 -63 27z"/>
<path d="M2226 6600 c-16 -71 -31 -174 -21 -155 8 19 46 217 41 222 -2 2 -11
-28 -20 -67z"/>
<path d="M1116 6613 c-6 -14 -5 -15 5 -6 7 7 10 15 7 18 -3 3 -9 -2 -12 -12z"/>
<path d="M1102 6520 c0 -14 2 -19 5 -12 2 6 2 18 0 25 -3 6 -5 1 -5 -13z"/>
<path d="M1089 6448 c-3 -22 -1 -34 4 -29 5 5 7 21 5 37 -3 27 -4 26 -9 -8z"/>
<path d="M2196 6421 c-10 -15 -15 -141 -6 -141 8 0 24 139 17 147 -3 2 -8 0
-11 -6z"/>
<path d="M1920 6410 c0 -5 5 -10 10 -10 6 0 10 5 10 10 0 6 -4 10 -10 10 -5 0
-10 -4 -10 -10z"/>
<path d="M1075 6335 c-4 -36 -5 -68 -3 -71 3 -2 8 25 12 62 4 37 5 69 2 71 -2
3 -7 -25 -11 -62z"/>
<path d="M3120 6330 c14 -4 36 -8 50 -9 20 -1 22 1 10 9 -8 5 -31 9 -50 9 -32
-1 -33 -2 -10 -9z"/>
<path d="M5260 6337 c5 -5 126 -19 270 -32 52 -4 52 -4 -15 9 -75 15 -263 32
-255 23z"/>
<path d="M5158 6313 c12 -2 32 -2 45 0 12 2 2 4 -23 4 -25 0 -35 -2 -22 -4z"/>
<path d="M5253 6303 c9 -2 25 -2 35 0 9 3 1 5 -18 5 -19 0 -27 -2 -17 -5z"/>
<path d="M5405 6285 l50 -13 -40 0 c-22 0 -67 3 -100 7 -33 4 -73 4 -90 0 -28
-7 -29 -7 -5 -9 52 -5 67 -8 135 -23 104 -23 196 -32 204 -19 4 7 19 8 44 3
23 -6 37 -5 37 1 0 12 79 1 140 -19 25 -8 56 -17 69 -19 14 -3 28 -7 32 -10 4
-2 50 -15 102 -29 53 -13 130 -36 172 -51 42 -14 79 -24 82 -20 3 3 0 7 -8 10
-8 2 -59 20 -114 40 -126 45 -517 143 -555 138 -8 -1 -22 1 -30 5 -22 9 -38
11 -110 17 l-65 5 50 -14z m208 -42 c-7 -2 -19 -2 -25 0 -7 3 -2 5 12 5 14 0
19 -2 13 -5z"/>
<path d="M5775 6254 c94 -24 208 -58 255 -75 172 -62 249 -93 245 -98 -3 -2 3
-10 13 -18 15 -13 13 -14 -23 -9 -34 5 -36 4 -16 -5 14 -5 39 -7 55 -4 23 5
27 4 16 -4 -13 -10 -13 -11 0 -11 8 0 22 5 30 10 12 8 12 10 1 10 -8 0 -12 2
-9 5 3 3 17 1 32 -4 35 -14 33 -5 -4 14 -33 17 -54 20 -45 5 3 -5 2 -10 -4
-10 -6 0 -15 8 -20 19 -17 31 -312 136 -538 191 -67 16 -130 30 -140 29 -10 0
59 -20 152 -45z"/>
<path d="M2244 6160 c0 -69 1 -97 3 -62 2 34 2 90 0 125 -2 34 -3 6 -3 -63z"/>
<path d="M1063 6205 c0 -27 2 -38 4 -22 2 15 2 37 0 50 -2 12 -4 0 -4 -28z"/>
<path d="M2676 6199 c-32 -17 -56 -32 -54 -35 3 -2 33 12 69 31 79 42 67 46
-15 4z"/>
<path d="M3145 6210 c3 -5 17 -10 31 -10 14 0 22 4 19 10 -3 6 -17 10 -31 10
-14 0 -22 -4 -19 -10z"/>
<path d="M3278 6213 c6 -2 18 -2 25 0 6 3 1 5 -13 5 -14 0 -19 -2 -12 -5z"/>
<path d="M2925 6194 c-55 -8 -148 -23 -206 -34 -121 -23 -142 -25 -119 -10 8
5 11 10 5 10 -5 0 -23 -9 -40 -20 -33 -23 -92 -50 -107 -50 -6 0 -5 8 3 18 7
9 2 7 -11 -5 -13 -12 -24 -31 -25 -41 -1 -17 6 -15 58 15 32 20 73 37 91 38
17 2 58 10 92 19 65 17 130 28 329 56 77 10 110 18 80 17 -27 0 -95 -6 -150
-13z m-475 -114 c0 -5 -5 -10 -11 -10 -5 0 -7 5 -4 10 3 6 8 10 11 10 2 0 4
-4 4 -10z"/>
<path d="M5318 6163 c6 -2 18 -2 25 0 6 3 1 5 -13 5 -14 0 -19 -2 -12 -5z"/>
<path d="M5413 6163 c26 -2 67 -2 90 0 23 2 2 3 -48 3 -49 0 -68 -1 -42 -3z"/>
<path d="M5601 6166 c3 -3 54 -12 114 -21 61 -9 164 -27 230 -41 124 -25 153
-28 142 -18 -7 8 -159 36 -337 64 -129 20 -157 23 -149 16z"/>
<path d="M1047 6013 c-10 -143 -8 -455 3 -628 6 -82 10 -249 11 -370 1 -182
-3 -243 -21 -354 -26 -160 -100 -393 -212 -666 -79 -192 -95 -248 -114 -395
-24 -183 22 -424 119 -615 89 -177 271 -475 290 -475 9 0 -6 28 -67 123 -20
31 -32 57 -26 57 5 0 10 7 10 15 0 8 -8 15 -17 15 -15 0 -16 -2 -3 -10 9 -6
10 -10 3 -10 -11 0 -53 51 -53 64 0 3 -16 30 -35 60 -19 30 -35 62 -35 70 0 8
-4 18 -10 21 -20 12 -94 183 -121 279 -45 163 -52 218 -46 329 8 133 44 278
112 441 29 72 65 163 79 201 13 39 40 113 58 165 47 131 74 242 94 395 18 140
17 310 -7 755 -6 124 -8 303 -4 423 3 114 4 207 2 207 -2 0 -7 -44 -10 -97z"/>
<path d="M2382 6053 c-12 -14 -21 -27 -20 -29 7 -7 50 34 47 44 -2 6 -14 -1
-27 -15z"/>
<path d="M6148 6073 c7 -3 16 -2 19 1 4 3 -2 6 -13 5 -11 0 -14 -3 -6 -6z"/>
<path d="M6188 6063 c7 -3 16 -2 19 1 4 3 -2 6 -13 5 -11 0 -14 -3 -6 -6z"/>
<path d="M6355 6030 c-3 -5 0 -10 9 -10 8 0 23 -3 33 -6 16 -5 16 -4 -1 10
-23 19 -32 20 -41 6z"/>
<path d="M6410 6036 c0 -2 7 -7 16 -10 8 -3 12 -2 9 4 -6 10 -25 14 -25 6z"/>
<path d="M2241 5994 c0 -11 3 -14 6 -6 3 7 2 16 -1 19 -3 4 -6 -2 -5 -13z"/>
<path d="M5285 5759 c-67 -10 -155 -36 -170 -52 -7 -6 -2 -7 15 -2 137 41 175
47 300 52 195 7 388 -26 642 -111 159 -54 315 -126 404 -187 59 -40 68 -31 12
11 -111 82 -426 209 -633 254 -199 44 -416 57 -570 35z"/>
<path d="M2790 5696 c-81 -22 -180 -60 -180 -70 0 -2 41 11 90 30 102 38 188
54 305 54 75 0 172 -11 216 -25 10 -4 19 -2 19 3 0 17 -60 25 -215 28 -133 3
-160 1 -235 -20z"/>
<path d="M2517 5590 c-26 -16 -47 -32 -47 -35 0 -3 18 6 41 20 22 15 50 30 62
35 14 6 16 9 6 9 -8 1 -36 -12 -62 -29z"/>
<path d="M3680 5555 c8 -11 32 -40 53 -63 22 -24 52 -71 68 -105 15 -34 28
-54 29 -43 0 33 -60 132 -113 182 -28 27 -45 40 -37 29z"/>
<path d="M5285 5556 c-106 -17 -179 -39 -267 -81 -90 -43 -73 -46 30 -4 82 32
168 53 270 63 l64 7 -7 -39 c-7 -44 17 -204 42 -272 39 -107 149 -242 233
-285 138 -70 345 -90 465 -45 72 28 121 58 156 96 38 41 111 152 133 201 15
33 22 41 32 32 7 -6 19 -7 26 -3 7 4 10 3 5 -1 -9 -11 22 -45 41 -45 12 0 11
4 -4 21 -19 22 -19 22 1 11 11 -7 36 -26 55 -43 l35 -31 -35 17 -35 17 30 -26
c17 -14 33 -25 38 -26 17 0 24 -4 50 -26 42 -35 58 -29 17 7 -19 17 -28 29
-20 26 8 -3 24 -8 35 -12 11 -3 7 1 -8 10 -43 25 -28 26 42 5 45 -15 88 -20
154 -19 51 1 81 3 67 5 -70 11 -146 27 -169 35 -20 8 -22 12 -11 19 10 7 -1
10 -38 10 -43 0 -71 9 -165 56 -61 31 -145 76 -185 101 -257 155 -561 235
-884 232 -62 -1 -149 -7 -193 -13z m152 -43 c-12 -11 -47 -10 -47 1 0 9 9 12
25 8 14 -2 24 -6 22 -9z m306 2 c171 -26 261 -55 237 -79 -5 -5 -10 -15 -10
-20 0 -6 8 1 18 16 l17 26 40 -20 c22 -11 47 -21 55 -22 8 -1 22 -5 30 -8 8
-4 27 -9 41 -12 15 -3 36 -14 48 -23 20 -17 20 -19 4 -53 -10 -19 -21 -36 -25
-38 -4 -2 -8 -12 -8 -21 0 -10 -25 -45 -55 -78 -30 -34 -55 -64 -55 -68 0 -23
-74 -59 -98 -46 -9 4 -23 6 -30 4 -7 -3 -27 0 -44 6 -31 11 -31 11 -13 -9 10
-11 21 -17 26 -15 4 3 10 1 14 -5 10 -16 -21 -12 -35 5 -7 8 -17 15 -23 15 -5
0 -16 8 -23 18 -10 14 -16 15 -32 5 -17 -10 -21 -9 -25 9 -4 14 -11 19 -22 14
-9 -3 -13 -2 -10 4 3 6 1 10 -4 10 -6 0 -11 7 -11 15 0 8 -4 15 -10 15 -5 0
-10 -5 -10 -11 0 -6 -7 -3 -15 5 -9 9 -24 21 -34 28 -53 38 -117 199 -108 274
2 24 1 44 -4 44 -5 0 -9 7 -9 15 0 20 49 20 183 0z"/>
<path d="M5797 5420 c5 -33 3 -40 -11 -40 -19 0 -22 -40 -4 -58 9 -9 8 -15 -5
-25 -15 -11 -16 -15 -4 -31 24 -32 37 -9 37 65 0 62 2 69 20 69 25 0 26 28 3
46 -32 24 -41 17 -36 -26z"/>
<path d="M7436 5375 c-67 -27 -123 -77 -155 -138 l-22 -42 23 30 c88 115 161
155 288 156 51 0 69 3 55 9 -40 17 -128 10 -189 -15z"/>
<path d="M3835 5280 c17 -142 17 -201 1 -293 -21 -122 -40 -171 -120 -305 -35
-59 -67 -121 -71 -137 -5 -21 1 -15 18 20 13 28 45 84 72 124 60 95 79 140
107 254 26 108 28 253 4 332 l-16 50 5 -45z"/>
<path d="M7563 5238 c21 -61 30 -115 30 -198 1 -110 -15 -160 -80 -256 -41
-59 -145 -164 -164 -164 -6 0 -33 -21 -60 -47 -49 -46 -51 -47 -66 -28 -10 14
-13 32 -8 60 14 90 28 117 117 211 83 88 88 96 88 137 0 33 -6 49 -23 65 -27
25 -82 29 -109 8 -28 -21 -21 -26 12 -10 54 27 100 1 100 -58 0 -35 -8 -47
-74 -117 -91 -96 -117 -145 -124 -233 -7 -98 18 -122 74 -72 16 14 56 44 88
66 91 63 161 143 209 237 42 84 42 86 42 190 -1 79 -6 119 -19 156 -18 46 -47
94 -33 53z"/>
<path d="M6700 5067 c0 -3 12 -12 26 -22 15 -9 23 -12 20 -6 -7 11 -46 35 -46
28z"/>
<path d="M6355 4956 c-38 -13 -91 -33 -116 -44 -70 -30 -165 -53 -249 -59 -90
-6 -290 25 -413 64 -130 40 -169 48 -212 42 -40 -6 -39 -6 12 -8 28 0 77 -11
109 -23 52 -20 55 -23 34 -29 -19 -5 -15 -7 20 -8 25 -1 79 -10 120 -20 l75
-18 -57 -12 c-32 -7 -60 -16 -63 -20 -2 -5 21 -2 53 5 60 14 175 19 155 6 -13
-8 156 -5 237 5 63 7 96 5 125 -9 20 -9 20 -9 1 6 -11 9 -25 16 -30 17 -6 0
-2 4 9 9 34 15 89 11 128 -9 20 -10 37 -15 37 -11 0 7 -30 23 -80 44 -8 3 22
4 68 3 90 -4 98 -1 31 12 -40 8 -37 9 38 10 45 1 94 -4 110 -10 23 -8 26 -8
15 3 -7 7 -48 15 -100 18 -84 5 -86 5 -53 18 19 6 50 12 70 13 28 0 32 2 16 8
l-20 8 20 5 20 6 -20 0 c-11 0 -51 -10 -90 -22z"/>
<path d="M3430 4963 c-8 -3 -35 -15 -60 -26 -66 -29 -95 -36 -195 -47 -91 -9
-125 -7 -299 25 -49 8 -91 14 -93 11 -6 -5 65 -26 90 -26 9 0 17 -4 17 -10 0
-5 7 -10 16 -10 10 0 14 -5 10 -15 -4 -12 -2 -13 12 -6 10 5 74 9 143 9 169
-1 221 10 349 78 41 21 46 30 10 17z"/>
<path d="M2563 4953 c9 -2 25 -2 35 0 9 3 1 5 -18 5 -19 0 -27 -2 -17 -5z"/>
<path d="M2658 4921 c-27 -8 -48 -18 -48 -23 0 -4 12 -3 27 3 14 5 50 10 80
11 58 2 61 5 17 16 -18 5 -47 2 -76 -7z"/>
<path d="M2825 4880 c7 -12 42 -13 48 -2 3 4 -8 8 -24 9 -17 1 -27 -2 -24 -7z"/>
<path d="M2693 4865 c-40 -17 -44 -29 -5 -13 15 6 43 14 62 18 34 8 34 8 5 8
-16 1 -45 -5 -62 -13z"/>
<path d="M6411 4876 c2 -2 15 -9 29 -15 24 -11 24 -11 6 3 -16 13 -49 24 -35
12z"/>
<path d="M6565 4860 c10 -11 20 -20 23 -20 3 0 -3 9 -13 20 -10 11 -20 20 -23
20 -3 0 3 -9 13 -20z"/>
<path d="M2765 4855 c-39 -17 -21 -18 25 0 19 7 28 14 20 14 -8 0 -28 -6 -45
-14z"/>
<path d="M6454 4675 c-8 -21 2 -45 19 -45 20 0 40 27 33 45 -7 19 -45 20 -52
0z"/>
<path d="M3685 4275 c27 -24 116 -75 130 -75 3 0 5 6 5 14 0 7 -21 21 -47 31
-27 9 -64 26 -83 36 l-35 19 30 -25z"/>
<path d="M4090 4221 c0 -11 90 -41 122 -41 37 0 16 18 -34 30 -29 6 -61 14
-70 17 -10 2 -18 0 -18 -6z"/>
<path d="M1025 4107 c-4 -10 -5 -21 -1 -24 10 -10 18 4 13 24 -4 17 -4 17 -12
0z"/>
<path d="M1550 3976 c0 -10 7 -24 15 -33 8 -8 12 -19 9 -25 -4 -7 -2 -8 4 -4
9 5 8 16 -4 39 -21 41 -24 44 -24 23z"/>
<path d="M997 3934 c-4 -4 -7 -37 -7 -73 1 -68 12 -68 24 0 7 38 -4 85 -17 73z"/>
<path d="M1410 3926 c0 -9 5 -16 10 -16 6 0 10 4 10 9 0 6 -4 13 -10 16 -5 3
-10 -1 -10 -9z"/>
<path d="M1915 3750 c3 -5 8 -10 11 -10 2 0 4 5 4 10 0 6 -5 10 -11 10 -5 0
-7 -4 -4 -10z"/>
<path d="M7043 3685 c0 -33 2 -45 4 -27 2 18 2 45 0 60 -2 15 -4 0 -4 -33z"/>
<path d="M4054 3693 c3 -10 1 -25 -4 -33 -8 -13 -10 -12 -10 3 0 31 -29 16
-107 -58 -91 -85 -94 -87 -114 -82 -17 4 -18 3 -8 -9 6 -8 18 -14 26 -14 8 0
11 -4 8 -10 -3 -5 1 -22 9 -37 24 -47 59 -73 166 -124 14 -6 44 -21 67 -32 63
-30 125 -29 224 3 46 15 107 39 134 54 28 14 56 26 63 26 7 0 22 16 33 35 12
19 28 35 36 35 8 0 13 6 10 13 -2 7 12 16 36 22 58 14 55 29 -6 42 -45 9 -262
106 -277 123 -3 3 -24 12 -47 19 -38 13 -47 12 -82 -4 -53 -23 -74 -10 -35 23
20 16 23 22 9 17 -37 -15 -93 -17 -115 -5 -19 10 -21 10 -16 -7z"/>
<path d="M2316 3565 c-9 -26 -7 -32 5 -12 6 10 9 21 6 23 -2 3 -7 -2 -11 -11z"/>
<path d="M2350 3296 c0 -9 5 -16 10 -16 6 0 10 4 10 9 0 6 -4 13 -10 16 -5 3
-10 -1 -10 -9z"/>
<path d="M4068 3249 c36 -13 202 -15 202 -1 0 4 -49 7 -110 7 -60 0 -102 -3
-92 -6z"/>
<path d="M950 3210 c0 -11 5 -20 10 -20 6 0 10 9 10 20 0 11 -4 20 -10 20 -5
0 -10 -9 -10 -20z"/>
<path d="M955 3140 c-3 -5 -2 -25 3 -43 6 -22 6 -40 0 -51 -11 -20 -8 -51 15
-141 8 -33 18 -78 21 -100 4 -22 13 -46 21 -54 12 -12 15 -11 20 10 9 39 -12
248 -28 267 -5 7 -10 34 -9 60 0 42 -9 61 -30 62 -4 0 -10 -4 -13 -10z"/>
<path d="M2685 2909 c-7 -10 7 -49 17 -49 14 0 38 27 38 43 0 14 -47 19 -55 6z"/>
<path d="M1131 2481 c91 -124 166 -215 192 -232 l32 -22 -28 29 c-26 28 -70
77 -93 106 -6 8 -30 42 -54 76 -23 34 -46 62 -52 62 -6 0 -5 -8 3 -19z"/>
<path d="M2070 2459 c0 -11 5 -17 10 -14 6 3 10 13 10 21 0 8 -4 14 -10 14 -5
0 -10 -9 -10 -21z"/>
<path d="M3400 2410 c0 -5 5 -10 10 -10 6 0 10 5 10 10 0 6 -4 10 -10 10 -5 0
-10 -4 -10 -10z"/>
<path d="M1365 2200 c10 -11 20 -20 23 -20 3 0 -3 9 -13 20 -10 11 -20 20 -23
20 -3 0 3 -9 13 -20z"/>
<path d="M1406 2160 c4 -8 27 -36 51 -61 24 -26 51 -55 60 -65 10 -13 9 -9 -3
11 -18 31 -122 142 -108 115z"/>
<path d="M2072 2161 c-10 -6 -6 -10 15 -14 31 -6 46 0 38 14 -8 11 -36 12 -53
0z"/>
<path d="M2240 2120 c0 -5 5 -10 10 -10 6 0 10 5 10 10 0 6 -4 10 -10 10 -5 0
-10 -4 -10 -10z"/>
<path d="M1540 2013 c0 -12 28 -38 34 -32 2 2 -5 13 -15 23 -11 11 -19 15 -19
9z"/>
<path d="M2150 2010 c-8 -5 -11 -12 -8 -16 10 -9 38 3 38 16 0 12 -10 13 -30
0z"/>
<path d="M1580 1965 c0 -4 29 -52 65 -105 78 -116 140 -246 190 -396 90 -267
117 -620 70 -914 -48 -300 -68 -479 -55 -493 4 -4 10 38 14 95 3 57 15 155 27
218 11 63 28 161 38 216 38 217 17 512 -59 814 -13 51 -68 195 -110 287 -32
68 -180 298 -180 278z"/>
<path d="M1575 690 c-3 -5 -1 -10 4 -10 6 0 11 5 11 10 0 6 -2 10 -4 10 -3 0
-8 -4 -11 -10z"/>
<path d="M1607 643 c-4 -3 -7 -11 -7 -17 0 -6 5 -5 12 2 6 6 9 14 7 17 -3 3
-9 2 -12 -2z"/>
<path d="M840 572 c0 -14 11 -21 26 -15 21 8 17 23 -6 23 -11 0 -20 -4 -20 -8z"/>
<path d="M1575 537 c-46 -25 -61 -69 -29 -81 31 -12 68 39 55 76 -5 14 -10 15
-26 5z"/>
<path d="M882 491 c-18 -11 12 -35 34 -27 13 5 14 9 4 21 -14 17 -20 18 -38 6z"/>
<path d="M956 439 c5 -8 -1 -10 -20 -7 -24 5 -25 4 -13 -11 8 -9 18 -27 22
-40 7 -22 8 -23 17 -7 6 10 12 31 15 47 3 22 0 29 -12 29 -10 0 -13 -5 -9 -11z"/>
<path d="M1620 360 c0 -5 5 -10 10 -10 6 0 10 5 10 10 0 6 -4 10 -10 10 -5 0
-10 -4 -10 -10z"/>
<path d="M1554 329 c-10 -18 13 -32 40 -25 37 9 34 36 -3 36 -17 0 -33 -5 -37
-11z"/>
<path d="M834 305 c-7 -17 4 -37 17 -30 12 8 12 45 -1 45 -6 0 -13 -7 -16 -15z"/>
<path d="M980 305 c-19 -23 -8 -37 18 -20 12 9 22 20 22 26 0 14 -26 11 -40
-6z"/>
<path d="M1385 290 c-8 -13 -1 -24 14 -19 6 3 7 10 2 18 -6 10 -10 10 -16 1z"/>
<path d="M805 280 c3 -5 8 -10 11 -10 2 0 4 5 4 10 0 6 -5 10 -11 10 -5 0 -7
-4 -4 -10z"/>
<path d="M1305 279 c-11 -17 -49 -28 -62 -17 -18 14 -25 -8 -11 -34 19 -33 50
-56 68 -50 23 9 29 23 19 49 -6 16 -5 31 1 44 11 20 -3 28 -15 8z"/>
<path d="M1039 215 c-1 -3 -2 -8 -3 -12 -1 -5 -5 -13 -9 -20 -5 -7 4 -6 23 3
16 9 30 20 30 25 0 9 -39 13 -41 4z"/>
<path d="M7204 205 c4 -11 21 -59 38 -107 17 -49 34 -88 38 -88 9 0 -64 198
-76 209 -4 3 -4 -3 0 -14z"/>
<path d="M1110 190 c0 -5 5 -10 10 -10 6 0 10 5 10 10 0 6 -4 10 -10 10 -5 0
-10 -4 -10 -10z"/>
<path d="M2270 186 c0 -9 5 -16 10 -16 6 0 10 4 10 9 0 6 -4 13 -10 16 -5 3
-10 -1 -10 -9z"/>
<path d="M1368 135 c-16 -16 -28 -35 -28 -42 0 -18 -8 -16 -37 7 -24 19 -27
19 -45 4 -30 -28 -22 -44 21 -44 22 0 43 -4 46 -10 3 -5 19 -10 36 -10 16 0
29 -5 29 -12 0 -8 3 -9 8 -3 11 16 122 19 122 3 0 -10 2 -10 9 2 11 16 4 33
-10 25 -5 -3 -21 6 -36 20 -16 14 -41 30 -58 34 -26 8 -22 9 28 10 l58 1 -18
25 c-26 36 -88 31 -125 -10z"/>
<path d="M1159 153 c-1 -5 -1 -12 0 -16 1 -4 -3 -16 -9 -26 -8 -16 -7 -18 10
-14 14 4 20 14 20 34 0 16 -4 29 -10 29 -5 0 -11 -3 -11 -7z"/>
<path d="M2396 101 c-4 -7 -5 -15 -2 -18 9 -9 19 4 14 18 -4 11 -6 11 -12 0z"/>
<path d="M1080 70 c0 -28 3 -30 35 -30 28 0 35 4 35 20 0 11 -7 20 -15 20 -8
0 -15 5 -15 10 0 6 -9 10 -20 10 -16 0 -20 -7 -20 -30z"/>
<path d="M1565 45 c-7 -5 -15 -18 -18 -28 -5 -14 0 -17 26 -17 32 0 64 30 52
50 -7 11 -44 9 -60 -5z"/>
<path d="M2490 19 c0 -18 2 -19 15 -5 8 8 15 17 15 20 0 3 -7 6 -15 6 -9 0
-15 -9 -15 -21z"/>
<path d="M2610 29 c-30 -3 -45 -6 -32 -7 12 -1 22 -6 22 -12 0 -6 26 -10 59
-10 50 0 59 3 64 20 3 13 0 20 -9 20 -8 0 -14 -4 -14 -10 0 -12 -27 -14 -32
-2 -1 4 -28 4 -58 1z"/>
<path d="M2747 19 c3 -10 14 -19 25 -19 15 0 17 4 10 17 -14 24 -41 26 -35 2z"/>
<path d="M1000 10 c-11 -7 0 -10 38 -10 29 0 51 4 48 8 -7 12 -69 13 -86 2z"/>
</g>
</svg>
